<?xml version="1.0" encoding="utf-8"?>
<!-- Generator: Adobe Illustrator 24.2.3, SVG Export Plug-In . SVG Version: 6.00 Build 0)  -->
<svg version="1.1" id="Layer_1" xmlns="http://www.w3.org/2000/svg" xmlns:xlink="http://www.w3.org/1999/xlink" x="0px" y="0px"
	 viewBox="0 0 20.2 20.2" style="enable-background:new 0 0 20.2 20.2;" xml:space="preserve">
<style type="text/css">
	.st0{fill:#091B36;}
	.st1{fill:#63CF63;}
	.st2{fill:#C61B2D;}
	.st3{fill:#FFFFFF;}
</style>
<rect class="st0" width="20.2" height="20.2"/>
<g>
	<g>
		<g>
			<g>
				<ellipse class="st1" cx="13.2" cy="11.5" rx="0.7" ry="0.7"/>
			</g>
		</g>
		<g>
			<g>
				<path class="st1" d="M9,17.8v1.7c0,0,3.4,0.5,3.2-2.7C12.2,16.9,10.9,18.1,9,17.8z"/>
			</g>
		</g>
		<g>
			<g>
				<path class="st1" d="M9.6,11c-1.9,0-3.4,1.4-3.4,3.2s1.5,3.2,3.4,3.2S13,16,13,14.2S11.5,11,9.6,11z M9.6,16
					c-1.1,0-1.9-0.9-1.9-1.8s0.9-1.8,1.9-1.8c1.1,0,1.9,0.9,1.9,1.8S10.6,16,9.6,16z"/>
			</g>
		</g>
	</g>
	<g>
		<polygon class="st2" points="16.1,1 14.4,1 13.8,1 12.5,1 12.5,6 13.8,6 13.8,6 14.4,6 14.4,16.6 19.1,16.6 19.1,1 		"/>
	</g>
	<polygon class="st3" points="2.9,0.9 2.1,0.9 0.9,0.9 0.9,6 2.1,6 2.9,6 2.9,16.6 4.5,16.6 4.5,6 4.5,0.9 	"/>
	<path class="st3" d="M11.6,6.8l-1.1,3.5L7.7,0.9H4.5V6l1.8,5.9c0.8-0.9,1.9-1.3,3.1-1.3c1,0,1.8,0.3,2.5,0.9l0.5-1.7L11.6,6.8z"/>
</g>
</svg>
