<svg id="Layer_1" data-name="Layer 1" xmlns="http://www.w3.org/2000/svg" xmlns:xlink="http://www.w3.org/1999/xlink" viewBox="0 0 389.64 393.95"><defs><style>.cls-1{fill:url(#linear-gradient);}.cls-2{fill:url(#linear-gradient-2);}</style><linearGradient id="linear-gradient" x1="186.58" y1="328.78" x2="568.72" gradientTransform="matrix(0.56, 0, 0, -0.57, -59.15, 250.08)" gradientUnits="userSpaceOnUse"><stop offset="0" stop-color="#5a9fd4"/><stop offset="1" stop-color="#306998"/></linearGradient><linearGradient id="linear-gradient-2" x1="716.45" y1="-198.96" x2="580" y2="-5.9" gradientTransform="matrix(0.56, 0, 0, -0.57, -59.15, 250.08)" gradientUnits="userSpaceOnUse"><stop offset="0" stop-color="#ffd43b"/><stop offset="1" stop-color="#ffe873"/></linearGradient></defs><path id="path1948" class="cls-1" d="M247.86,52.13A267.73,267.73,0,0,0,203,56c-39.77,7-47,21.74-47,48.86v35.82h94v11.94H120.68C93.37,152.58,69.46,169,62,200.22c-8.63,35.8-9,58.14,0,95.52,6.68,27.82,22.64,47.65,50,47.65h32.32V300.45c0-31,26.84-58.38,58.71-58.38h93.87c26.13,0,47-21.52,47-47.76V104.82c0-25.47-21.48-44.6-47-48.86A293.25,293.25,0,0,0,247.86,52.13ZM197,80.94a17.91,17.91,0,1,1-17.63,18A17.84,17.84,0,0,1,197,80.94Z" transform="translate(-55.36 -52.13)"/><path id="path1950" class="cls-2" d="M355.53,152.58v41.73c0,32.36-27.43,59.59-58.71,59.59H203c-25.72,0-47,22-47,47.76v89.49c0,25.47,22.14,40.45,47,47.76,29.75,8.75,58.27,10.33,93.87,0,23.66-6.85,47-20.64,47-47.76V355.33H249.94V343.39H390.8c27.32,0,37.5-19.05,47-47.65,9.81-29.44,9.39-57.75,0-95.52-6.75-27.18-19.65-47.64-47-47.64ZM302.74,379.21a17.91,17.91,0,1,1-17.64,17.85A17.73,17.73,0,0,1,302.74,379.21Z" transform="translate(-55.36 -52.13)"/></svg>