<?xml version="1.0" encoding="utf-8"?>
<!-- Generator: Adobe Illustrator 24.2.3, SVG Export Plug-In . SVG Version: 6.00 Build 0)  -->
<svg version="1.1" id="Layer_1" xmlns="http://www.w3.org/2000/svg" xmlns:xlink="http://www.w3.org/1999/xlink" x="0px" y="0px"
	 viewBox="0 0 90 90" style="enable-background:new 0 0 90 90;" xml:space="preserve">
<style type="text/css">
	.st0{fill:#63CF63;}
	.st1{fill:#C61B2D;}
	.st2{fill:#FFFFFF;}
</style>
<g>
	<g>
		<g>
			<circle class="st0" cx="59.1" cy="51.8" r="3.2"/>
		</g>
		<g>
			<path class="st0" d="M40.6,80.7v7.8c0,0,14.8,2.2,13.9-12.1C54.5,76.4,49.1,81.9,40.6,80.7z"/>
		</g>
		<g>
			<path class="st0" d="M43.3,49.4c-8.1,0-14.7,6.6-14.7,14.7s6.6,14.7,14.7,14.7S58,72.2,58,64.1C58,55.9,51.4,49.4,43.3,49.4z
				 M43.3,72.3c-4.6,0-8.2-3.7-8.2-8.2s3.7-8.2,8.2-8.2c4.6,0,8.2,3.7,8.2,8.2S47.8,72.3,43.3,72.3z"/>
		</g>
	</g>
	<g>
		<polygon class="st1" points="71.6,3.4 64.3,3.4 61.3,3.4 56,3.4 56,26.6 61.3,26.6 61.3,26.6 64.3,26.6 64.3,75.2 84.4,75.2 
			84.4,3.4 		"/>
	</g>
	<polygon class="st2" points="14.1,3.4 11,3.4 5.6,3.4 5.6,26.6 10.9,26.6 14,26.6 14,75.1 21,75.1 21,26.6 21,3.4 	"/>
	<path class="st2" d="M52.1,30.5l-4.6,16.2L35.2,3.4H21.3H21v23.2h0.2l7.9,27.1c3.3-3.7,8.2-6.1,13.6-6.1c4.1,0,8,1.4,11,3.7
		l2.1-7.6L52.1,30.5z"/>
</g>
</svg>
