<?xml version="1.0" encoding="utf-8"?>
<!-- Generator: Adobe Illustrator 24.2.3, SVG Export Plug-In . SVG Version: 6.00 Build 0)  -->
<svg version="1.1" id="Layer_1" xmlns="http://www.w3.org/2000/svg" xmlns:xlink="http://www.w3.org/1999/xlink" x="0px" y="0px"
	 viewBox="0 0 180 100" style="enable-background:new 0 0 180 100;" xml:space="preserve">
<style type="text/css">
	.st0{fill:#091B36;}
	.st1{fill:#D4145A;}
	.st2{fill:#39B54A;}
	.st3{fill:#F57C21;}
	.st4{fill:#00FFFF;}
	.st5{fill:#FF00FF;}
	.st6{fill:#FFFFFF;}
	.st7{fill:#D25B1E;}
	.st8{fill:#FFBE8D;}
	.st9{fill:none;stroke:#333333;stroke-width:0.7377;stroke-miterlimit:10;}
	.st10{fill:#E37F29;stroke:#333333;stroke-width:0.7038;stroke-miterlimit:10;}
	.st11{fill:#FFF5AD;}
	.st12{fill:#BC611E;}
	.st13{fill:#666666;stroke:#333333;stroke-width:0.5279;stroke-linecap:round;stroke-linejoin:round;stroke-miterlimit:10;}
	.st14{fill:#999999;}
	.st15{fill:none;stroke:#333333;stroke-width:0.7377;stroke-linecap:round;stroke-linejoin:round;stroke-miterlimit:10;}
	.st16{fill:#CCCCCC;}
	.st17{fill:#701300;}
	.st18{fill:#8C0909;}
	.st19{fill:#C9635F;}
	.st20{fill:none;stroke:#333333;stroke-width:0.5533;stroke-miterlimit:10;}
	.st21{fill:#FFFFFF;stroke:#333333;stroke-width:0.5533;stroke-linecap:round;stroke-linejoin:round;stroke-miterlimit:10;}
	.st22{fill:none;stroke:#333333;stroke-width:0.5533;stroke-linecap:round;stroke-linejoin:round;stroke-miterlimit:10;}
	.st23{fill:none;stroke:#333333;stroke-width:0.3688;stroke-linecap:round;stroke-linejoin:round;stroke-miterlimit:10;}
	.st24{fill:#8C0909;stroke:#333333;stroke-width:0.5533;stroke-miterlimit:10;}
	.st25{fill:#8C0909;stroke:#333333;stroke-width:0.5533;stroke-linecap:round;stroke-linejoin:round;stroke-miterlimit:10;}
	.st26{fill:#8C0909;stroke:#333333;stroke-width:0.3688;stroke-linecap:round;stroke-linejoin:round;stroke-miterlimit:10;}
	.st27{fill:#E37F29;stroke:#333333;stroke-width:0.3688;stroke-miterlimit:10;}
	.st28{fill:#8E4E24;}
	.st29{fill:#AA453A;}
	.st30{fill:#E28A86;}
	.st31{fill:#E37F29;stroke:#333333;stroke-width:0.7377;stroke-miterlimit:10;}
	.st32{fill:#9E210D;}
	.st33{fill:#CC5548;}
	.st34{fill:#076FA4;}
	.st35{fill:#0F576D;}
	.st36{fill:#65C7E5;}
	.st37{fill:#38A5C6;}
	.st38{fill:#333333;}
	.st39{fill:#E37F29;}
	.st40{fill:url(#SVGID_1_);}
	.st41{fill:url(#SVGID_2_);}
	.st42{fill:url(#SVGID_3_);}
	.st43{fill:url(#SVGID_4_);}
	.st44{fill:url(#SVGID_5_);}
	.st45{fill:url(#SVGID_6_);}
	.st46{fill:url(#SVGID_7_);}
	.st47{fill:url(#SVGID_8_);}
	.st48{fill:url(#SVGID_9_);}
	.st49{fill:#A50F5E;stroke:#223265;stroke-width:0.5784;stroke-linecap:round;stroke-linejoin:round;stroke-miterlimit:10;}
	.st50{fill:#ED1E79;}
	.st51{fill:#A50F5E;}
	.st52{fill:#ED95BB;}
	.st53{fill:none;stroke:#223265;stroke-width:0.5784;stroke-linecap:round;stroke-linejoin:round;stroke-miterlimit:10;}
	.st54{fill:#1A2750;}
	.st55{fill:#FCFAFA;}
</style>
<g>
	<path class="st0" d="M61.8,75.3h-9.3v10H34.2v-10H8.7V64.2L27.1,7.1h25.3l0.1,56.4h9.3V75.3z M34.2,63.6V32.7l-8.5,30.9H34.2z"/>
	<path class="st0" d="M68,72l-0.1-50.3c0-10.1,7.4-15.2,22.2-15.2c14.5,0,21.8,5,21.8,15.1l0.1,50.3c0,4.5-2,8-6.1,10.5
		C101.7,84.8,96.5,86,90,86c-6.6,0-11.9-1.2-16-3.6C70,79.9,68,76.5,68,72z M93.1,72.7L93,19.5c0-1.6-1-2.3-3-2.3
		c-2.2,0-3.2,0.8-3.2,2.3l0.1,53.3c0,1.6,1.1,2.3,3.2,2.3C92.1,75.1,93.1,74.3,93.1,72.7z"/>
	<path class="st0" d="M171.3,75.2H162v10h-18.3v-10h-25.5V64.1L136.6,7h25.3l0.1,56.4h9.3L171.3,75.2z M143.6,63.5V32.6l-8.5,30.9
		H143.6z"/>
</g>
<g>
	<path class="st1" d="M37.5,76.8c-0.5-0.1-0.8-0.5-0.5-0.9c0.2,0.2,0.5,0.5,0.7,0.7c0,0,0,0,0.1,0c-0.1-0.3-0.1-0.6-0.2-0.9
		c-0.3,0-0.6-0.1-0.8-0.3c-0.1-0.2-0.1-0.4-0.1-0.7c0.3,0.3,0.5,0.6,0.9,0.8c-0.1-0.3-0.2-0.6-0.2-0.9c-0.7-0.2-1-0.6-0.7-1.1
		c0.2,0.4,0.4,0.8,0.8,1c-0.1-0.3-0.1-0.6-0.2-0.9c-0.7-0.3-0.9-0.6-0.7-1.1c0.3,0.3,0.5,0.6,0.8,1l0,0c0-0.2-0.1-0.5-0.1-0.8
		c-0.3-0.1-0.6-0.3-0.7-0.7c0-0.2,0-0.5,0.3-0.7c0,0.6,0.2,1,0.6,1.3c0-0.5-0.1-1,0.1-1.4c0.3,0.4,0.3,0.8,0.2,1.2c0,0,0,0,0.1,0
		c0.1-0.3,0.2-0.6,0.4-0.9c0.4,0.4,0.2,0.9-0.5,1.2c0.1,0,0.1,0,0.2,0c0,0.2,0,0.4,0,0.6c0,0,0,0,0.1,0c0.2-0.3,0.3-0.7,0.5-1
		c0.3,0.4,0.1,0.9-0.6,1.3c0.2,0,0.2,0.1,0.2,0.2c0,0.2,0,0.3,0,0.5c0.1-0.2,0.2-0.3,0.3-0.5s0.1-0.4,0.2-0.5
		c0.2,0.2,0.2,0.5,0.1,0.8c-0.1,0.2-0.2,0.2-0.7,0.5c0.2-0.1,0.2,0.1,0.2,0.2s0,0.2,0,0.3c0,0.1,0,0.2,0,0.3l0,0
		c0.1-0.2,0.2-0.4,0.2-0.5c0.1-0.2,0.1-0.4,0.2-0.6c0.3,0.3,0.2,0.9-0.2,1.3c0,0.2,0,0.4,0,0.5c0,0.2,0,0.3,0,0.6
		c0.2-0.3,0.4-0.6,0.7-0.9c0.1,0.2,0.1,0.5-0.1,0.8c-0.2,0.2-0.4,0.3-0.7,0.3c0.3,0,0.2,0.2,0.2,0.4c0,0.2-0.1,0.3-0.1,0.5
		c0.5,0.2,0.8,0.5,0.9,1c0.2,0.5,0.1,0.9-0.1,1.3c0,0.1,0.1,0.2,0.1,0.3c0.1,0.5,0.1,1,0.2,1.5c0.1,0,0.1,0,0.3-0.1
		c0.1,0.3,0.1,0.6,0.2,0.9c0.2-0.1,0.3-0.1,0.5-0.3v-0.2c-0.1-0.3-0.2-0.5-0.2-0.8s0-0.6,0-0.8c0-0.1,0-0.2,0-0.3
		c-0.2-0.7,0-1.6,0.7-2.1c0,0,0.1-0.1,0.1-0.2s0-0.1,0-0.2c-0.1-0.4,0-0.7,0.1-1.1c-0.4-0.2-0.7-0.4-0.8-0.8c0-0.2,0-0.4,0.2-0.5
		c0.1,0.5,0.4,0.9,0.7,1.2c0-0.3-0.1-0.5-0.1-0.8c0.1,0,0.1,0,0.2,0l0,0l-0.1-0.1c-0.4-0.1-0.8-0.5-0.7-0.9c0-0.1,0.1-0.3,0.1-0.4
		c0.1,0.4,0.3,0.8,0.6,1.1c0-0.3-0.1-0.6-0.1-0.8c0.1,0,0.2,0,0.2,0c-0.7-0.3-0.9-0.7-0.5-1.4c0.1,0.4,0.3,0.7,0.4,1.1
		c0,0,0,0,0.1,0c0-0.2,0-0.4,0-0.6s0-0.4,0.2-0.5C41.3,73,41,72.8,41,72.4c0-0.2,0-0.3,0.2-0.5c0.1,0.4,0.2,0.7,0.5,1
		c0-0.3-0.1-0.5-0.1-0.8c0.1,0,0.1,0,0.2,0c-0.7-0.4-0.9-0.9-0.5-1.3c0.2,0.4,0.3,0.7,0.5,1.1c0,0,0,0,0.1,0c0-0.4,0-0.8,0-1.1
		c0,0,0,0,0.1,0c0.1,0.3,0.1,0.6,0.2,0.9l0,0c0.1-0.3,0.2-0.6,0.3-0.8c0.4,0.2,0.3,0.7-0.2,1.1c0,0.2,0.1,0.4,0,0.6
		c0,0.2-0.1,0.3-0.1,0.5c0,0,0,0,0.1,0c0.2-0.3,0.4-0.5,0.6-0.8c0.2,0.2,0.1,0.6-0.1,0.7c-0.2,0.1-0.4,0.2-0.5,0.2s-0.1,0-0.2,0.1
		c0,0,0,0,0,0.1c0.1,0,0.1,0,0.2,0.1c-0.1,0.3-0.2,0.6-0.3,0.9c0.4-0.2,0.6-0.5,0.8-0.8c0.3,0.4-0.1,0.9-0.6,1
		c-0.1,0.3-0.1,0.6-0.2,0.9c0.4-0.2,0.6-0.6,0.8-0.9c0.2,0.2,0.1,0.6-0.1,0.8c-0.2,0.2-0.5,0.3-0.8,0.4c0.1,0,0.1,0,0.2,0
		c0,0.4-0.1,0.7-0.2,1.1c0.4-0.2,0.7-0.6,1-1c0.1,0.3,0.1,0.5,0,0.6c-0.2,0.4-0.6,0.5-1,0.4c0.2,0.1,0.2,0.1,0.2,0.3
		c0,0.1-0.1,0.3-0.1,0.4c-0.1,0.3-0.2,0.6-0.1,1c0.2,0.7,0,1.3-0.4,1.9c-0.1,0.1-0.1,0.2-0.1,0.3c-0.1,0.3-0.1,0.6-0.2,0.9
		c0,0,0,0,0.1,0c0.1-0.1,0.3-0.3,0.4-0.4c0.2-0.2,0.3-0.4,0.4-0.7c0.1-0.5,0.4-0.8,0.9-1c0.1,0,0.1-0.1,0.2-0.1
		c0.1-0.1,0.1-0.3,0.1-0.4l0.1-0.1c-0.5-0.3-0.7-0.8-0.3-1.4c0.1,0.4,0.2,0.9,0.4,1.3c0.1-0.4,0.2-0.7,0.3-1
		c-0.5-0.3-0.8-0.9-0.4-1.4c0.2,0.4,0.2,0.9,0.6,1.2c0-0.3,0-0.5,0-0.8l0.1-0.1c-0.3-0.1-0.6-0.3-0.6-0.7c0-0.2,0-0.3,0.1-0.5
		c0.2,0.3,0.3,0.6,0.5,0.9c0,0,0,0,0.1,0c0-0.3,0-0.5,0.1-0.8c-0.3-0.1-0.5-0.3-0.6-0.7c0-0.2,0-0.3,0.1-0.5c0,0,0,0,0.1,0
		c0.2,0.3,0.4,0.6,0.5,0.9c0,0,0,0,0.1,0c0-0.4,0-0.8,0-1.3h0.1c0.1,0.4,0.2,0.8,0.2,1.3c0,0,0,0,0.1,0c0.1-0.3,0.2-0.6,0.3-0.9
		c0.2,0.1,0.2,0.3,0.2,0.5c-0.1,0.3-0.2,0.5-0.6,0.6c0.2,0.1,0.1,0.1,0,0.8c0.2-0.3,0.4-0.5,0.6-0.8c0,0.1,0.1,0.1,0.1,0.2
		c0.1,0.4-0.2,0.8-0.6,0.8c-0.1,0-0.1,0-0.2,0c0,0,0,0,0,0.1c0.1,0,0.1,0,0.2,0c0.1,0.4-0.1,0.7-0.2,1c0.4-0.3,0.6-0.6,0.8-1
		c0.2,0.3,0.1,0.5,0,0.7c-0.2,0.3-0.5,0.5-0.9,0.5c0,0.1,0,0.2,0,0.3c-0.1,0.2-0.2,0.4-0.4,0.7c0.4-0.1,0.9-0.4,1.3-0.7
		c0,0.3-0.1,0.5-0.3,0.6s-0.4,0.2-0.6,0.3c-0.2,0-0.4,0-0.6,0c0,0,0.1,0,0.1,0.1s0,0.1,0,0.2c-0.1,0.2-0.3,0.3-0.4,0.5
		c-0.1,0.1-0.1,0.1-0.1,0.2c0,0.5-0.3,0.9-0.7,1.2c-0.1,0-0.1,0.1-0.1,0.2c-0.2,0.3-0.4,0.5-0.8,0.7c-0.2,0.1-0.3,0.2-0.5,0.3
		c0.5,0.2,0.5,0.3,0.2,0.7c-0.1,0.1-0.2,0.3-0.4,0.4c-0.5,0.4-0.6,1-0.6,1.6c0,0.1,0,0.1,0,0.2c-0.2,0.1-0.5,0.1-0.7,0l-0.1-0.1
		c0-0.6-0.3-1-0.5-1.6c-0.1-0.3-0.2-0.5-0.3-0.8c0-0.1,0-0.2,0-0.2c0.1-0.2,0-0.3,0-0.4c-0.2-0.4-0.5-0.7-0.7-1.1
		C38,80.9,38,80.7,38,80.6s0-0.2,0-0.4c-0.5-0.5-0.7-1.2-0.4-1.9c0,0,0,0,0-0.1c0.2-0.3,0.2-0.5,0.1-0.8
		C37.6,77.2,37.6,77,37.5,76.8z"/>
	<g>
		<path class="st2" d="M28.3,47.5c0,0.8,0.3,1.4,0.8,2c0.3,0.3,0.4,0.7,0.5,1.1c0.1,0.2,0.1,0.5-0.1,0.7c-0.1,0.1,0,0.2,0,0.2
			c0.4,0.8,0.8,1.6,1,2.5c0.1,0.1,0.1,0.2,0.2,0.4c0.3,1,0.2,2,0,3s-0.4,2-0.5,3c-0.1,0.8-0.1,1.6,0.1,2.4c0.1,0.4,0.1,0.4,0.5,0.3
			c0.4-0.1,0.6-0.4,0.8-0.8c0.1-0.3,0.2-0.6,0.2-0.9c0-1.5,0-3,0-4.5c0-0.8,0.1-1.7,0.2-2.5c0-0.1,0.1-0.2,0-0.3
			c-0.1-0.1-0.2-0.2,0-0.3c0.1,0,0.3-0.1,0.3,0.1c0,0,0.1,0,0.1,0.1c-0.2,0.4-0.2,0.9-0.2,1.3c-0.1,1.4,0,2.9,0,4.3
			c0,0.9,0.1,1.8-0.1,2.7c0.1,0,0.2-0.1,0.2-0.2c0.4-0.6,0.8-1.2,1-1.8c0.3-0.6,0.6-1.2,1-1.7v-0.1c0.1-0.1,0.2-0.1,0.3,0
			c-0.5,0.7-0.8,1.4-1.2,2.1c-0.4,0.9-0.9,1.8-1.7,2.4c-0.1,0.1-0.1,0.1-0.1,0.2c-0.3,0.5-1.3,0.8-1.9,0.6c-0.8-0.2-1.3-0.7-1.8-1.3
			c-0.3-0.4-0.6-0.9-0.9-1.3c-0.2-0.2-0.4-0.4-0.6-0.7c-0.2-0.2-0.2,0-0.3,0.1c0,0,0,0,0,0.1c0,0.2,0,0.4-0.2,0.5s-0.4-0.1-0.6-0.2
			c-0.2-0.2-0.5-0.4-0.6-0.7c-0.4-0.6-1-0.9-1.7-1c0.2-0.2,0.4-0.2,0.9-0.3c0.7-0.1,1.4,0,2.1,0.2c0.3,0.1,0.6,0.3,0.8,0.6
			c0.1,0.1,0.2,0.3,0.1,0.5s-0.3,0.1-0.4,0.1c0.7,0.6,1,1.5,1.6,2.1c0,0,0.1,0.1,0.1,0v-0.1c-0.5-0.9-0.5-1.9-0.4-3
			c0.2-1.4,0.4-2.8,0.3-4.2c0.1,0,0.1,0.1,0.2,0.1c0,0-0.1,0.1,0,0.1c0.1,0.1,0.1-0.1,0.1-0.1c0.1,0,0.1,0,0.1,0.1
			c0.1,0.5,0.1,1.1,0,1.6c-0.1,1.1-0.2,2.1-0.3,3.2c-0.1,1,0.3,1.9,1.2,2.6c0.1,0.1,0.2,0.1,0.3,0.1c0-0.3-0.1-0.6-0.1-0.9
			c-0.1-0.7,0-1.3,0.1-2c0.2-1.2,0.4-2.5,0.7-3.7c0.1-1,0-1.9-0.2-2.8c-0.2-0.7-0.6-1.4-0.9-2.2c0-0.1,0-0.1-0.1-0.1
			c-0.4,0-0.5-0.3-0.6-0.6c-0.2-0.5-0.3-1.1-0.4-1.7c0-0.6-0.1-1.3,0.1-1.9C28.4,47.3,28.3,47.4,28.3,47.5z"/>
		<path class="st2" d="M28.6,55.5c-0.1,0-0.1,0.1-0.1,0.1c0,0.1-0.1-0.1-0.1,0c-0.1,0,0-0.1,0-0.1c0.1-0.1,0-0.2-0.1-0.2
			c-0.2-0.1-0.3,0-0.3,0.1c-0.1,0.1-0.2,0.3-0.3,0.4c-0.4,0.5-0.9,0.4-1.2-0.1c-0.4-0.6-0.5-1.3-0.6-1.9c-0.1-0.5,0-1-0.1-1.5
			c-0.2-1.1-0.8-2-1.7-2.7c-0.1,0-0.1-0.1-0.2-0.1c0.3,0,0.5,0,0.7,0.1c1.4,0.3,2.5,1.1,3.5,2c0.5,0.5,1,1,1.4,1.5
			c0.5,0.7,0.7,1.6,0.6,2.5c0.1,0.3-0.1,0.4-0.3,0.5c-0.2,0.1-0.4,0.1-0.5,0s-0.2-0.2-0.3-0.3C28.8,55.7,28.8,55.5,28.6,55.5z"/>
		<path class="st2" d="M32.4,54c-0.1,0-0.2,0-0.2-0.2c-0.1,0-0.2,0-0.3,0c-0.1,0,0,0.1,0,0.2c-0.2,0.3-0.4,0.4-0.7,0.6
			c-0.2,0.1-0.4,0-0.6-0.3c0-0.1-0.1-0.2-0.1-0.2c-0.1-0.2,0.3-0.2,0.1-0.4c0,0-0.1,0,0,0l0,0c0,0.1,0.1,0.2-0.1,0.2
			c-0.1,0,0-0.2,0-0.3c0.1-0.7,0.5-1.3,1-1.8c1.4-1.3,3-2.1,4.9-2.4c0.5-0.1,1-0.1,1.5,0c-0.9,0.4-1.6,0.9-2.1,1.7
			c-0.3,0.4-0.4,0.7-0.5,1.2c-0.2,0.7-0.4,1.4-0.8,2c-0.1,0.3-0.3,0.5-0.5,0.7c-0.4,0.4-0.8,0.3-1.1-0.2c-0.1-0.1-0.1-0.2-0.1-0.3
			C32.7,54.3,32.6,54.1,32.4,54z"/>
		<path class="st2" d="M34.7,58.4c-0.1-0.1-0.2,0-0.3,0s-0.1,0-0.2,0.1c-0.3,0.1-0.5-0.1-0.5-0.4c0-0.2,0.2-0.4,0.3-0.6
			c0.5-0.7,1.2-1,1.9-1.2c0.9-0.3,1.9-0.4,2.9-0.1c0,0,0.1,0,0.2,0.1c-0.5,0.1-0.8,0.2-1.1,0.5c-0.4,0.3-0.7,0.6-0.9,1
			s-0.5,0.8-0.8,1.2c-0.1,0.1-0.2,0.3-0.4,0.3c-0.3,0.2-0.6,0.1-0.7-0.3c0-0.1,0-0.2-0.1-0.3C34.9,58.4,34.9,58.2,34.7,58.4z"/>
		<path class="st2" d="M30.6,53.6c0,0.1,0,0.2,0,0.3c0.1-0.1-0.1-0.2,0.1-0.3c0.1,0.3,0.1,0.3-0.1,0.5c-0.1,0-0.1,0-0.1-0.1
			S30.5,53.7,30.6,53.6z"/>
	</g>
	<path class="st3" d="M90.3,73.9c0.2-0.7,0.5-1.3,0.7-2c0-0.1,0-0.2,0-0.2c-0.1-0.4-0.1-0.8,0-1.2c0.3-1.1,0.9-2,1.8-2.6
		c0.4-0.3,0.8-0.6,1.1-1.1c0.4-0.7,0.9-1.3,1.5-1.8c0.3-0.3,0.6-0.5,0.9-0.6s0.7-0.1,0.9,0.2c-0.6-0.1-0.9,0.2-1.1,0.7
		s-0.4,1-0.6,1.6c-0.4,1-1,1.9-1.9,2.5c-0.4,0.3-0.7,0.7-0.9,1.2c-0.2,0.8-0.8,1.1-1.5,1.4c-0.1,0-0.2,0.1-0.2,0.2
		c-0.3,0.6-0.4,1.3-0.6,1.9c0,0.1,0,0.2,0.1,0.2c0.2,0,0.3,0,0.5-0.1c0.4-0.2,0.8-0.5,0.9-0.9c0.2-0.6,0.6-1,1-1.4
		c0.2-0.1,0.3-0.2,0.5-0.3c0.3-0.1,0.6-0.3,0.8-0.5c0.2-0.3,0.5-0.5,0.8-0.5c0.3-0.1,0.5,0,0.8,0.3c-0.4-0.2-0.6,0.1-0.8,0.4
		c-0.1,0.1-0.2,0.3-0.3,0.5c-0.2,0.3-0.5,0.5-0.9,0.6c-0.2,0-0.4,0.2-0.5,0.4c-0.1,0.2-0.3,0.4-0.4,0.6c-0.2,0.3-0.5,0.4-0.9,0.4
		c-0.2,0-0.3,0.1-0.4,0.2c-0.4,0.3-0.7,0.6-1.3,0.6c-0.1,0-0.1,0.1-0.1,0.2s-0.1,0.3-0.2,0.4s-0.2,0.3-0.3,0c0-0.1-0.1,0-0.1,0
		c-0.5,0-0.8-0.2-1.1-0.5c-0.2-0.2-0.5-0.5-0.7-0.8c-0.1-0.1-0.1-0.1-0.3-0.2c-0.8-0.1-1.3-0.5-1.6-1.1c-0.1-0.2-0.2-0.5-0.3-0.7
		c-0.1-0.3-0.3-0.5-0.6-0.6c-0.6-0.2-1-0.7-1.3-1.3c-0.1-0.3-0.3-0.6-0.5-0.9c-0.2-0.4-0.4-0.4-0.8-0.2h-0.1
		c0.4-0.5,0.8-0.6,1.4-0.3c0.4,0.3,0.8,0.6,1,1.1c0.2,0.3,0.4,0.5,0.6,0.6c1.4,0.7,2,2,2.3,3.4v0.1c0.4,0.5,0.8,1,1.4,1.2
		c0.5,0.2,0.6,0.1,0.6-0.4c-0.1-0.8-0.3-1.6-0.9-2.2c-0.1-0.1-0.2-0.2-0.4-0.2c-0.2,0-0.4-0.1-0.5-0.2c-0.9-0.4-1.3-1.1-1.3-2
		c0-0.6,0.1-1.2,0.1-1.8c0.1-0.8,0-1.5-0.4-2.2c-0.6-1.4-0.7-2.8,0-4.2c0.3-0.5,0.7-0.9,1.3-1.2c-0.3,0.4-0.5,0.8-0.6,1.3
		c-0.2,0.8,0,1.6,0.2,2.3c0.2,0.5,0.4,1.1,0.6,1.6c0.3,0.7,0.4,1.4,0.3,2.1c-0.1,0.8,0,1.5,0.4,2.2c0.2,0.3,0.4,0.7,0.5,1.1
		c0.1,0.3,0.1,0.6-0.1,0.8c0,0-0.1,0.1,0,0.2c0.3,0.3,0.5,0.6,0.6,1c0.3-0.5,0.4-1.1,0.5-1.7c0.1-0.4,0.1-0.8,0.1-1.2
		c0-0.4-0.1-0.8-0.4-1.2c-0.6-0.8-0.9-1.8-0.9-2.8c0-0.3,0.1-0.6,0.1-1c0.1-0.4,0.1-0.7,0-1.1c-0.2-0.6-0.2-1.1-0.1-1.7
		c0.1-0.5,0.5-0.8,1-0.8c-0.5,0.3-0.5,0.5-0.3,1c0.1,0.3,0.3,0.7,0.4,1c0.3,0.6,0.3,1.1,0.1,1.7c-0.1,0.4-0.1,0.8,0.1,1.1
		c0.4,0.7,0.6,1.4,0.4,2.1c0,0.1,0,0.2-0.1,0.2c-0.3,0.4-0.2,0.8-0.2,1.2c0.1,0.9,0,1.7-0.3,2.6c0,0.1,0,0.1-0.1,0.2
		C89.9,72.9,90.1,73.4,90.3,73.9C90.2,73.9,90.3,73.9,90.3,73.9z"/>
	<path class="st4" d="M149.7,83.4c0.2,0.2,0.4,0.1,0.6,0c0.1-0.1,0.3-0.2,0.5-0.2c-0.1,0.4,0,0.7,0.3,0.9c0.3,0.2,0.4-0.1,0.5-0.3
		c0,0.3,0.1,0.5,0.1,0.8c0,0.1-0.1,0.4,0.2,0.3c0.2-0.1,0.4-0.1,0.4-0.4c-0.1-0.6-0.2-1.2-0.2-1.8c0.2,0,0.1,0.2,0.2,0.3
		c0,0.1,0.1,0.2,0.1,0.3c0.1,0.3,0.2,0.6,0.6,0.6c0.3-0.1,0.3-0.4,0.4-0.7c0.2,0.1,0.5,0.2,0.6-0.1c0.1-0.3,0-0.5-0.1-0.8
		c-0.1-0.1-0.3-0.2-0.1-0.4c0.1-0.1-0.1-0.3-0.2-0.4c-0.3-0.1-0.5-0.3-0.2-0.6c0.2,0,0.4,0.2,0.6-0.1c0.1-0.3,0.1-0.6-0.1-0.8
		c-0.1-0.1-0.2-0.2-0.1-0.4c0.1-0.3-0.1-0.4-0.3-0.5c-0.3-0.1-0.1-0.3-0.1-0.4c0-0.2,0.2-0.1,0.2,0c0.1,0,0.3,0,0.4-0.1
		c0.2-0.2,0.2-0.4,0.1-0.6c-0.1-0.2-0.2-0.3-0.1-0.5c0.1-0.2-0.2-0.4-0.4-0.6c0.1-0.1,0.1-0.1,0.2-0.2c0.1-0.2,0.1-0.2,0.3-0.1
		c0.1,0.1,0.2,0.1,0.3,0c0.2-0.1,0.2-0.3,0.2-0.5s-0.1-0.4,0.1-0.6c0.1-0.2-0.2-0.5-0.6-0.7c-0.2-0.1-0.3,0-0.5,0
		c0.1-0.3,0.2-0.5,0.3-0.7v0.1c0,0.4,0.2,0.6,0.6,0.4c0.1-0.1,0.2-0.4,0.5-0.2c0.2,0.1,0.4-0.2,0.4-0.4c0-0.2-0.1-0.4,0.1-0.7
		c0.1-0.2-0.2-0.6-0.6-0.6c-0.2,0-0.4,0.2-0.7,0.2c0.1-0.5,0.2-1,0.2-1.6c0.2,0.1,0.2,0.3,0.2,0.4c0,0.2,0.1,0.3,0.1,0.4
		c0.1,0.1,0.1,0.2,0.3,0.2c0.1,0,0.2-0.1,0.2-0.3c0-0.1,0.1-0.2,0.3-0.2c0.3,0,0.3-0.3,0.2-0.5s-0.1-0.3-0.1-0.5
		c0-0.3-0.5-0.4-0.9-0.2c-0.1,0.1-0.2,0.3-0.4,0.3c-0.1-0.3-0.1-0.6-0.3-0.9c0-0.2-0.2-0.3-0.1-0.4c0.2,0.2,0.3,0.4,0.6,0.5
		c0.1,0.1,0.3,0.1,0.4,0c0.1-0.1,0.1-0.2,0.1-0.3c0-0.1-0.1-0.2,0.1-0.3c0.2-0.1,0.2-0.4-0.1-0.6c-0.1-0.1-0.3-0.2-0.3-0.3
		c-0.1-0.2-0.5-0.2-0.7,0c-0.1,0.1-0.2,0.3-0.2,0.5s-0.1,0.1-0.2,0c-0.1-0.2-0.1-0.3,0-0.5c0-0.1,0.1-0.1,0.1-0.2
		c0.1-0.2,0.3-0.4,0.1-0.6s-0.4-0.1-0.6,0.2c-0.1,0.2-0.2,0-0.3,0c-0.2,0-0.3,0-0.4,0.1c-0.1,0.2,0.1,0.2,0.2,0.3
		c-0.1,0.1-0.2,0.1-0.2,0.2c-0.1,0.1-0.2,0.2-0.1,0.4c0.1,0.1,0.2,0.1,0.4,0.1c0.1,0,0.3-0.1,0.4-0.1c0.2-0.1,0.3,0,0.4,0.2l0,0
		c-0.2,0-0.3-0.1-0.5-0.1c-0.5,0.2-0.5,0.3-0.4,0.7c0,0.1,0,0.1-0.1,0.2c-0.1,0.4,0,0.7,0.4,0.8c0.1,0,0.1,0.1,0.1,0.1
		c0.1,0.1,0,0.1-0.1,0.2c-0.4,0.3-0.4,0.6-0.1,0.9c0.2,0,0.4-0.1,0.6-0.2c0,0.2,0,0.2-0.5,0.3c-0.2,0.2-0.4,0.4-0.7,0.5
		c-0.2,0.1-0.4,0.3-0.3,0.5c0.1,0.3,0.4,0.3,0.7,0.2l0,0h0.1c0.1,0,0.1,0,0.2,0l-0.1,0.1h-0.1c-0.2,0.2-0.2,0.4-0.1,0.6
		c-0.4-0.1-0.7-0.3-0.9,0.3h-0.1c-0.1,0-0.2,0.1-0.3,0.1c-0.2,0.1-0.4,0.3-0.4,0.6c0.1,0.3,0.4,0.3,0.6,0.3c0.1,0,0.2,0,0.3,0
		c-0.3,0.3-0.4,0.6-0.1,0.9c0.2,0.3,0.4-0.1,0.7-0.2c-0.1,0.4-0.3,0.7-0.4,1c-0.1-0.2-0.2-0.4-0.4-0.6c-0.4-0.3-0.9-0.2-1,0.3
		c0,0.1-0.1,0.1-0.2,0.1c-0.1,0.1-0.2,0.1-0.3,0.2c-0.2,0.2-0.4,0.5-0.2,0.7c0.2,0.3,0.4,0.2,0.7,0.1c0.1,0,0.2-0.1,0.3-0.1
		c0,0.2-0.1,0.3-0.1,0.5s0.1,0.3,0.1,0.5c-0.3,0-0.5-0.1-0.7,0c-0.1,0.1-0.3,0.2-0.3,0.3c0.1,0.3-0.1,0.4-0.3,0.5
		c-0.1,0.1-0.1,0.1-0.2,0.2c-0.1,0.2-0.2,0.5-0.1,0.7c0.2,0.3,0.5,0.1,0.7,0.1c0.1,0,0.1,0,0.2-0.1c0.1,0,0.2-0.1,0.3-0.1l0,0
		c-0.1,0.2,0,0.5,0,0.7s-0.4,0.2-0.5,0.4c0,0,0,0,0,0.1c0.2,0.4-0.3,0.6-0.4,0.8c0,0.1-0.1,0.1-0.1,0.2
		C149.6,83,149.5,83.2,149.7,83.4z M153.9,70.3c-0.1-0.1-0.1-0.3-0.2-0.4v-0.1l0,0l0,0l0.1,0.1l0,0c0,0.1,0,0.2,0,0.2l0,0l0,0
		C154,70.2,154,70.3,153.9,70.3C154,70.3,154,70.3,153.9,70.3L153.9,70.3c0.1,0.1,0.2,0.3,0.1,0.4c0,0,0,0.1-0.1,0.1
		C153.9,70.7,153.9,70.5,153.9,70.3z M154,71.7c0-0.1,0-0.2,0.1-0.3C154.2,71.6,154.1,71.7,154,71.7c0.1,0.1,0.1,0.2,0,0.3
		C154,71.9,154,71.8,154,71.7z M153.9,72.8c-0.1-0.3-0.1-0.3,0.1-0.5C153.9,72.5,153.9,72.6,153.9,72.8z M153.9,73.8
		c0-0.1,0-0.3,0.2-0.4C154.1,73.6,154.1,73.7,153.9,73.8L153.9,73.8L153.9,73.8z M153.9,73.8L153.9,73.8
		C153.9,73.7,153.9,73.7,153.9,73.8c0-0.1,0.1-0.2,0.1-0.3C153.9,73.6,153.9,73.7,153.9,73.8L153.9,73.8z M153.6,73.2
		c-0.1,0-0.2,0-0.3,0C153.5,73,153.6,73,153.6,73.2c0.1-0.1,0.2-0.1,0.2,0C153.8,73.2,153.7,73.2,153.6,73.2z M153,74.9
		c-0.2-0.6-0.2-0.6,0.2-1c0.1-0.1,0.2-0.3,0.3-0.5c0-0.1,0-0.2,0.2-0.1C153.5,73.8,153.3,74.3,153,74.9z M152.8,75.5
		c-0.1,0.1-0.1,0.3-0.3,0.3C152.6,75.7,152.5,75.5,152.8,75.5z M152.5,77c0.2-0.5,0.3-0.9,0.6-1.3C153.2,76.6,153.2,76.7,152.5,77z
		 M152.1,79.5c0-0.6,0.1-1.2,0.2-1.9c0.2,0.4,0,0.8,0.2,1.1C152.9,79.1,152.2,79.1,152.1,79.5C152.2,79.4,152.2,79.4,152.1,79.5z
		 M152.2,81.9c-0.1-0.6-0.1-1.1-0.1-1.6v-0.1c0.1-0.1,0.1,0,0.1,0.1s0.1,0.3,0.1,0.4c0,0.2,0.1,0.4,0.3,0.6c0.1,0.1,0.1,0.2,0,0.3
		C152.4,81.6,152.3,81.7,152.2,81.9z M151.2,78.9c0.2,0,0.3-0.2,0.5-0.3c0,0.3-0.1,0.5-0.1,0.8C151.5,79.3,151.3,79.1,151.2,78.9z
		 M151.5,80.7c0-0.1,0-0.1,0.1-0.1s0.1,0.1,0.1,0.1C151.6,80.7,151.6,80.8,151.5,80.7C151.5,80.8,151.5,80.7,151.5,80.7z
		 M151.6,81.2c0,0.2,0,0.4,0,0.7C151.2,81.5,151.2,81.5,151.6,81.2z"/>
	<path class="st5" d="M138,55.3c-0.5-0.1-0.7-0.5-0.5-0.9c0.2,0.2,0.5,0.5,0.7,0.7c0,0,0,0,0.1,0c-0.1-0.3-0.1-0.6-0.2-0.9
		c-0.3,0-0.5-0.1-0.7-0.3c-0.1-0.2-0.1-0.4-0.1-0.6c0.2,0.3,0.5,0.6,0.8,0.7c-0.1-0.3-0.1-0.6-0.2-0.9c-0.7-0.1-1-0.5-0.7-1.1
		c0.2,0.4,0.4,0.7,0.8,0.9c-0.1-0.3-0.1-0.6-0.2-0.9c-0.6-0.2-0.8-0.6-0.7-1.1c0.2,0.3,0.5,0.6,0.7,0.9l0,0c0-0.2-0.1-0.5-0.1-0.7
		c-0.3-0.1-0.6-0.3-0.7-0.7c0-0.2,0-0.5,0.3-0.7c0,0.5,0.2,0.9,0.6,1.2c0-0.5-0.1-0.9,0.1-1.4c0.3,0.4,0.3,0.8,0.2,1.2
		c0,0,0,0,0.1,0c0.1-0.3,0.2-0.6,0.4-0.9c0.4,0.3,0.2,0.9-0.5,1.1c0.1,0,0.1,0,0.2,0c0,0.2,0,0.4,0,0.6l0,0c0.2-0.3,0.3-0.6,0.5-0.9
		c0.3,0.4,0.1,0.9-0.6,1.2c0.2,0,0.2,0.1,0.2,0.2c0,0.2,0,0.3,0,0.5c0.1-0.2,0.2-0.3,0.3-0.5s0.1-0.3,0.2-0.5
		c0.2,0.2,0.2,0.5,0.1,0.8c-0.1,0.2-0.1,0.2-0.6,0.5c0.2-0.1,0.2,0.1,0.2,0.2c0,0.1,0,0.2,0,0.3s0,0.2,0,0.3l0,0
		c0.1-0.2,0.1-0.3,0.2-0.5c0.1-0.2,0.1-0.3,0.2-0.5c0.3,0.3,0.2,0.8-0.2,1.2c0,0.2,0,0.4,0,0.5c0,0.2,0,0.3,0,0.5
		c0.2-0.3,0.4-0.6,0.6-0.9c0.1,0.2,0.1,0.5-0.1,0.7c-0.2,0.2-0.4,0.3-0.7,0.3c0.3,0,0.2,0.2,0.2,0.4s-0.1,0.3-0.1,0.5
		c0.5,0.2,0.7,0.5,0.9,0.9s0.1,0.9-0.1,1.3c0,0.1,0.1,0.2,0.1,0.3c0.1,0.5,0.1,0.9,0.2,1.4c0.1,0,0.1,0,0.3-0.1
		c0.1,0.3,0.1,0.6,0.2,0.9c0.2-0.1,0.3-0.1,0.5-0.2v-0.2c-0.1-0.2-0.2-0.5-0.2-0.7c0-0.3,0-0.5,0-0.8c0-0.1,0-0.2,0-0.3
		c-0.2-0.7,0-1.5,0.7-2c0,0,0.1-0.1,0.1-0.2c0-0.1,0-0.1,0-0.2c0-0.4,0-0.6,0.1-1c-0.4-0.1-0.7-0.4-0.7-0.8c0-0.2,0-0.3,0.2-0.5
		c0.1,0.5,0.3,0.8,0.7,1.1c0-0.3-0.1-0.5-0.1-0.8c0.1,0,0.1,0,0.2,0l0,0l-0.1-0.1c-0.4-0.1-0.7-0.4-0.7-0.8c0-0.1,0.1-0.3,0.1-0.4
		c0.1,0.4,0.3,0.7,0.6,1c0-0.3,0-0.5-0.1-0.8c0.1,0,0.1,0,0.2,0c-0.6-0.2-0.8-0.7-0.5-1.3c0.1,0.4,0.3,0.7,0.4,1.1c0,0,0,0,0.1,0
		c0-0.2,0-0.4,0-0.6c0-0.2,0-0.4,0.2-0.4c-0.4-0.1-0.7-0.3-0.7-0.7c0-0.2,0-0.3,0.2-0.5c0.1,0.3,0.2,0.7,0.5,0.9
		c0-0.3-0.1-0.5-0.1-0.8c0.1,0,0.1,0,0.2,0c-0.7-0.3-0.9-0.8-0.5-1.2c0.2,0.3,0.3,0.7,0.5,1c0,0,0,0,0.1,0c0-0.4,0-0.7,0-1.1
		c0,0,0,0,0.1,0c0,0.3,0.1,0.6,0.1,0.9l0,0c0.1-0.3,0.2-0.5,0.3-0.8c0.4,0.2,0.3,0.7-0.2,1c0,0.2,0.1,0.4,0,0.5
		c0,0.2-0.1,0.3-0.1,0.5l0,0c0.2-0.2,0.4-0.5,0.6-0.7c0.2,0.2,0.1,0.5-0.1,0.7c-0.1,0.1-0.3,0.2-0.5,0.2c-0.1,0-0.1,0-0.2,0.1
		c0,0,0,0,0,0.1c0.1,0,0.1,0,0.2,0.1c-0.1,0.3-0.2,0.5-0.3,0.8c0.3-0.2,0.6-0.5,0.8-0.8c0.3,0.4-0.1,0.8-0.6,1
		c-0.1,0.3-0.1,0.6-0.2,0.9c0.4-0.2,0.6-0.5,0.8-0.9c0.2,0.2,0.1,0.6-0.1,0.8c-0.2,0.2-0.4,0.3-0.7,0.3c0.1,0,0.1,0,0.2,0
		c0,0.4-0.1,0.7-0.2,1c0.4-0.2,0.7-0.5,0.9-0.9c0.1,0.2,0.1,0.4,0,0.6c-0.2,0.4-0.5,0.5-1,0.4c0.2,0.1,0.2,0.1,0.2,0.3
		c0,0.1-0.1,0.3-0.1,0.4c-0.1,0.3-0.2,0.6-0.1,0.9c0.2,0.6,0,1.2-0.4,1.8c-0.1,0.1-0.1,0.2-0.1,0.3c-0.1,0.3-0.1,0.6-0.2,0.9l0,0
		c0.1-0.1,0.3-0.3,0.4-0.4c0.2-0.2,0.3-0.4,0.3-0.7c0.1-0.5,0.4-0.8,0.9-0.9c0.1,0,0.1-0.1,0.1-0.1c0.1-0.1,0.1-0.3,0.1-0.4l0.1-0.1
		c-0.5-0.3-0.7-0.8-0.3-1.4c0.1,0.4,0.2,0.8,0.4,1.2c0.1-0.3,0.2-0.6,0.3-0.9c-0.5-0.3-0.7-0.8-0.4-1.3c0.2,0.4,0.2,0.8,0.6,1.2
		c0-0.3,0-0.5,0-0.7L144,55c-0.3-0.1-0.6-0.3-0.6-0.7c0-0.2,0-0.3,0.1-0.4c0.1,0.3,0.3,0.6,0.4,0.8c0,0,0,0,0.1,0
		c0-0.2,0-0.5,0.1-0.8c-0.3-0.1-0.5-0.3-0.6-0.6c0-0.1,0-0.3,0.1-0.4c0,0,0,0,0.1,0c0.2,0.3,0.3,0.6,0.5,0.9c0,0,0,0,0.1,0
		c0-0.4,0-0.8,0-1.2h0.1c0.1,0.4,0.1,0.8,0.2,1.2c0,0,0,0,0.1,0c0.1-0.3,0.2-0.6,0.3-0.9c0.2,0.1,0.2,0.3,0.2,0.5
		c0,0.3-0.2,0.5-0.5,0.6c0.1,0.1,0.1,0.1,0,0.8c0.2-0.2,0.3-0.5,0.5-0.8c0,0.1,0.1,0.1,0.1,0.2c0.1,0.4-0.2,0.7-0.6,0.8
		c-0.1,0-0.1,0-0.2,0l0,0c0.1,0,0.1,0,0.2,0c0.1,0.3-0.1,0.6-0.2,1c0.4-0.2,0.6-0.6,0.8-1c0.1,0.3,0.1,0.5,0,0.7
		c-0.2,0.3-0.4,0.5-0.8,0.4c0,0.1,0,0.2,0,0.2c-0.1,0.2-0.2,0.4-0.3,0.6c0.4-0.1,0.8-0.4,1.2-0.7c0,0.3-0.1,0.4-0.3,0.6
		c-0.2,0.1-0.4,0.2-0.6,0.3c-0.2,0-0.4,0-0.6,0c0,0,0.1,0,0.1,0.1c0,0,0,0.1,0,0.2c-0.1,0.2-0.3,0.3-0.4,0.5
		c-0.1,0.1-0.1,0.1-0.1,0.2c0,0.5-0.3,0.8-0.6,1.1c-0.1,0-0.1,0.1-0.1,0.2c-0.2,0.3-0.4,0.5-0.7,0.7c-0.2,0.1-0.3,0.2-0.5,0.3
		c0.4,0.2,0.5,0.3,0.2,0.7c-0.1,0.1-0.2,0.3-0.3,0.4c-0.4,0.4-0.6,0.9-0.6,1.5c0,0.1,0,0.1,0,0.2c-0.2,0.1-0.5,0.1-0.7,0l-0.1-0.1
		c0-0.5-0.3-1-0.5-1.5c-0.1-0.2-0.2-0.5-0.3-0.8c0-0.1,0-0.2,0-0.2c0.1-0.2,0-0.3,0-0.4c-0.2-0.3-0.4-0.7-0.7-1
		c-0.1-0.1-0.1-0.3-0.1-0.4c0-0.1,0-0.2,0-0.3c-0.5-0.5-0.7-1.1-0.4-1.8c0,0,0,0,0-0.1c0.2-0.2,0.2-0.5,0.1-0.8
		C138,55.8,138.1,55.6,138,55.3z"/>
</g>
<path class="st6" d="M84.5,57.5L84.5,57.5c-1,0.6-4,1.1-4.9,1.2c-0.5,0.9-1.5,1.5-2.6,1.5c-0.2,0-0.3,0-0.5,0l-3.8,2
	c0.1,1.9,0,3.4-0.4,4.8c-0.1,0.4-0.3,0.8-0.5,1.1c0,0.3,0,0.6,0,0.9c0,0.7-0.1,1.4-0.2,2c-0.1,0.2-0.1,0.4-0.2,0.6
	c0.9,2.8,1.5,7.8,0,10.4l0.1,1.8c0,0.2,0,0.5-0.2,0.9c0.6,1.1,0.7,2.3,0.4,3.4c2.7,0.3,4.8,1.8,5.6,4c0.2,0.4,0.2,0.9,0.2,1.3
	c0,0.6-0.2,1.2-0.4,1.6c-0.4,0.8-1.1,1.3-2,1.4c-1.3,0.2-2.6,0.2-4,0.2h-0.3c-0.3,0-0.6,0-0.9,0h-0.1c-2.2-0.1-4.5-0.3-6.7-0.8
	c-1,1.4-3,2.3-5.6,2.6v0.2c-0.2,0-0.5,0.1-0.7,0.1c-0.1,0-0.1,0-0.2,0l0,0c-0.5,0-1-0.1-1.6-0.2c-2.3-0.4-4.1-2-4.6-4.2
	c-0.6-2.2,0.2-4.4,2.2-6c-0.6-1.2-0.5-2.6,0.1-3.7c-0.1-0.3-0.2-0.6-0.2-1c0-0.5,0.1-2.7,1.2-3.8c-0.5-2.3,0.1-5,0.9-7.6
	c-0.1-0.3-0.2-0.8-0.2-1.4c0,0.1-0.1,0.2-0.1,0.3c-0.3,0.8-0.9,1.3-1.6,1.5c-0.1,1-0.5,1.6-0.9,2c-0.6,0.7-1.5,1-2.4,1
	c-1.7,0-3.7-1.2-4-3.4c-0.4-1.5,0.4-5.3,2.1-6.7c0-1.2,0.2-2.5,1.9-3.2l4.6-8.9c0-0.1-0.1-0.2-0.1-0.3c-0.1-0.2,0-0.5,0.1-0.8
	c0.2-0.4,0.4-0.8,0.7-1.2c0.1-0.1,0.2-0.2,0.2-0.2l-0.5-0.8l1.2,0.3v-0.3c-2.3-1.1-4.3-2.7-5.8-4.7c-0.3,0.1-0.7,0.2-1.3,0.2h-0.2
	c-0.8,0-1.6-0.2-2.4-0.6h-0.1c-0.7-0.4-1.2-1.1-1.7-2.5c-0.4-1.2-0.6-2.9-0.7-4.6c-0.1-1.8-0.2-6,1.4-7.2c0.7-0.8,1.4-1.2,2.4-1.4
	c0.5-1.2,1-2.4,1.8-3.4l-1.2-1.7l0.8-0.7c-0.9-1.9-3-5.5-7-8.2c-3.6-2.4-4.1-6.8-4.1-9.2c0-2.8,0.8-6.1,2.2-7.1L40-0.8l3.8-0.1
	L44-0.8c0.3,0.1,0.5,0.3,0.7,0.6c0.2,0.6,0,1.2-0.5,2.1c-1,2.2-3,6.3,1,10.2c0.8,0.5,5.3,3.3,7.7,8.2l0,0l1.3,0.8
	c0.9-0.5,1.8-1,2.8-1.3l0.2-2.3l0.7-0.2c0.3-0.1,0.5-0.1,0.7-0.1h0.3c0.9-0.2,1.8-0.4,2.6-0.5l2.1-0.3l-0.3,0.4
	c2.9,0.1,5.6,0.7,8.1,1.9l0.5,0.3l0.2,2.6c3.3,2.2,5.8,5.5,6.8,9.4l1.6,0.6l0.1,0.6c0.3,1.7,0.4,3.3,0.3,4.8
	c-0.1,2.8-0.6,5.2-1.7,7.3L79,44.6l-2.5,0.5l0.1-0.3l0,0c-1.5,2.1-3.4,3.9-5.7,5.2v0.7l0,0l1.3-0.3l-0.5,0.7
	c0.2,0.2,0.4,0.5,0.5,0.7c0.2,0.4,0.2,0.9,0,1.4L72,53.6l1,2.1l0.4-0.2c0.1-1.7,1.1-2.4,2.1-2.8c0.3-0.6,0.5-1.2,0.7-1.9v-0.1v-0.1
	c0.4-0.8,1-1.2,1.8-1.2c0.7,0,1.5,0.4,1.8,1c0.1,0.2,0.2,0.3,0.2,0.5c0.6-0.3,1.2-0.4,1.8-0.4c2,0,3.3,1.5,3.7,3.1
	C86.2,55.1,85.7,56.7,84.5,57.5z"/>
<g>
	<g>
		<path class="st7" d="M76.3,30.9l3.2,1.2c0.7,4.3,0.3,8-1.2,11.2l-2.7,0.6L76.3,30.9z"/>
		<path class="st8" d="M79.5,32.4l-3.2-1.2v0.2c1.8,1,3,3.9,3,7.3c0,1.9-0.4,3.6-1.1,5l0,0C79.8,40.4,80.2,36.7,79.5,32.4z"/>
		<path class="st9" d="M76.3,30.9l3.2,1.2c0.7,4.3,0.3,8-1.2,11.2l-2.7,0.6L76.3,30.9z"/>
	</g>
	<g>
		<path class="st10" d="M52.8,22.5c-2.1-6.3-8.2-9.7-8.2-9.7c-6.3-6,0-12.5-0.9-12.8l-3.3,0.1c-1.9,1.3-3.6,10.9,1.9,14.6
			c6,4,7.9,10.1,7.9,10.1L52.8,22.5z"/>
		<path class="st11" d="M44.2,13.1c-6.3-6,0-12.5-0.9-12.8h-0.5c0.7,0.5-5.3,6.9,0.9,12.8c0,0,6.1,3.4,8.2,9.7l-2.3,1.9
			c0.1,0.2,0.1,0.3,0.1,0.3l2.7-2.3C50.3,16.5,44.2,13.1,44.2,13.1z"/>
		<path class="st12" d="M43.6,14.7c-5.3-3.5-4.1-12.5-2.3-14.3h-0.6c-1.9,1.3-3.3,10.8,2.1,14.4c6,4,7.9,10,7.9,10l0.6-0.5
			C50.8,23,48.7,18.1,43.6,14.7z"/>
		<polyline class="st13" points="50.3,26.2 49.1,24.6 53,21.4 54.8,22.6 50.5,26.2 		"/>
	</g>
	<g>
		<path class="st6" d="M70.3,81.5l0.1,2.2c0,0.4-0.2,0.8-0.5,1.1c-1.4,1.3-4.8,1.5-6.5,0.3c-0.5-0.4-1-1.2-0.9-1.9l0.1-2.9l1.6,2.1
			c-2.5-3.6-2.2-7-0.6-10.8l6.6-0.2c1,2.9,1.5,7.7,0.2,10c-0.4,0.6-1,1-1.7,1.2"/>
		<path class="st14" d="M63.7,82.7c-0.3,1.8,1.4,2.3,3.3,2.7c-1.9,0.2-4.4-0.3-4.5-1.7c-0.1-1.1,0-2.3,0.2-3.5l1.9-5.7l0.2-0.8
			l2.8-0.8l-0.2,0.5c-0.1,0.3-0.3,0.5-0.6,0.6L66,74.2c-0.2,0.1-0.4,0.2-0.5,0.5c-1.9,4.9-1.4,7.4-1.4,7.4l0.3,0.4
			C64.7,83,64.1,83.3,63.7,82.7z"/>
		<path class="st15" d="M70.3,81.5l0.1,2.2c0,0.4-0.2,0.8-0.5,1.1c-1.4,1.3-4.8,1.5-6.5,0.3c-0.5-0.4-1-1.2-0.9-1.9l0.1-2.9l1.6,2.1
			c-2.5-3.6-2.2-7-0.6-10.8l6.6-0.2c1,2.9,1.5,7.7,0.2,10c-0.4,0.6-1,1-1.7,1.2"/>
	</g>
	<g>
		<path class="st16" d="M54.6,80.4c-1,0.5-1.3,2.2-1.2,3.2c0,0.3,0.1,0.6,0.4,0.8c1.8,1.7,5.7,1.8,7.8,0.6c0.4-0.2,0.7-0.6,0.9-1.1
			c0.3-0.8,0.5-1.8,0.5-2.9c0-0.2-0.3-0.4-0.5-0.2L61,82c2.5-2,3.7-5.3,3.8-10l-9-0.3c-1.3,4-2,7.6-0.1,10.1"/>
		<path class="st14" d="M55.9,71.9l-0.2,0.8h0.2c-1,3.3-1.3,6-0.5,8.2l-0.3-0.5c-1,0.5-1.3,2.2-1.2,3.2c0,0.3,0.1,0.6,0.4,0.8
			c0.9,0.8,2.2,1.2,3.6,1.4c-0.9-0.2-1.7-0.6-2.3-1.2c-0.2-0.2-0.4-0.5-0.4-0.8c-0.1-0.6,0.2-0.9,0.7-1c0.3,0,0.5-0.3,0.5-0.6
			c-0.4-2-0.2-6.1,0.9-8.8c0.1-0.4,0.4-0.7,0.8-0.7h1.7c0,0.1,0,0.3,0,0.4c0,0.4,0.2,0.7,0.5,0.8c1.4,0.5,2.8,0.7,4.2,0.3v-2
			L55.9,71.9z"/>
		<path class="st15" d="M54.6,80.4c-1,0.5-1.3,2.2-1.2,3.2c0,0.3,0.1,0.6,0.4,0.8c1.8,1.7,5.7,1.8,7.8,0.6c0.4-0.2,0.7-0.6,0.9-1.1
			c0.3-0.8,0.5-1.8,0.5-2.9c0-0.2-0.3-0.4-0.5-0.2L61,82c2.5-2,3.7-5.3,3.8-10l-9-0.3c-1.3,4-2,7.6-0.1,10.1"/>
		<path class="st6" d="M59.7,74.5c0.5,0.3,1.9,0.9,3.4,0.6c0.2,0,0.3,0.1,0.3,0.2c0.2,2-0.9,4.7-3.1,6.4c-0.2,0.3,0,0.9,0.4,1
			c0.4,0,0.8-0.3,1.3-0.8c0.3,0.9,0,1.7-0.8,2.5c-0.7,0.4-1.4,0.6-2,0.5c-0.1,0-0.3-0.1-0.3-0.3c-0.4-3.6-0.4-7,0.5-10.1
			C59.4,74.5,59.6,74.4,59.7,74.5z"/>
	</g>
	<g>
		<g>
			<path class="st17" d="M55.5,67.9c-0.3,0.1-0.2,4.5-0.2,3.9c3.5,0.4,6.7,0.4,9.5,0.2v-3C61.9,69.2,58.8,68.8,55.5,67.9z"/>
			<path class="st18" d="M70.7,67.9c-1.9,0.7-3.9,1-5.9,1.2V72c2-0.1,3.9-0.4,5.5-0.7C70.8,70.4,70.9,69.2,70.7,67.9z"/>
		</g>
		<path class="st19" d="M69.4,68.5l1.1-0.4c0,1.2-0.1,2.3-0.3,3.3l-1.1,0.2C69.4,70.5,69.5,69.5,69.4,68.5z"/>
		<path class="st20" d="M55.5,67.9c-0.3,0.1-0.2,4.5-0.2,3.9c6.1,0.7,11.1,0.2,15-0.5c0.4-0.9,0.5-2.1,0.4-3.4
			C66.2,69.5,61.2,69.4,55.5,67.9z"/>
	</g>
	<g>
		<path class="st21" d="M70.1,52l2.4,4.7c0.1,0.1,0.2,0.1,0.3,0.1l2.3-1.4c0.2-0.1,0.4-0.1,0.6,0c0.9,0.5,1.4,1.5,1.1,2.9
			c0,0.2-0.2,0.4-0.3,0.5l-6,3.2L70.1,52z"/>
		<path class="st14" d="M71.2,61.2l5.1-2.7c0.2-0.1,0.2-0.2,0.3-0.4c0.1-0.4,0.1-0.8,0.1-1.1c0,0.1,0,0.2-0.1,0.3
			c0,0.2-0.1,0.3-0.3,0.4l-5.1,2.7V61.2z"/>
	</g>
	<g>
		<g>
			<path class="st16" d="M56.4,52c-0.3,0-0.6,0.1-0.7,0.4l-5.6,10.7C49.6,64,50,65.2,51,65.5c0.6,0.3,1.4,0.3,1.9,0.1
				c0.2-0.1,0.4-0.3,0.5-0.5l3.1-6.6c0,0-2.9,7.5-1.2,9.8c2.1,0.5,4.3,0.8,6.7,0.8V52.6C60.2,52.5,58.4,52.3,56.4,52z"/>
			<path class="st6" d="M70.4,52.3c0-0.2-0.3-0.4-0.5-0.3c-2.3,0.6-5,0.7-7.9,0.6v16.5c2.4,0,4.9-0.2,7.3-0.7
				c0.9-0.2,1.7-0.9,1.9-1.9C72.3,62.6,71.2,57.8,70.4,52.3z"/>
		</g>
		<path class="st14" d="M57.5,68.7l-1.9-0.3c-0.4-2,0-5.3,1.3-9.8c0-0.1,0-0.3-0.1-0.4l-0.1-0.1c-0.1-0.1-0.2-0.1-0.3,0.1l-3.2,7.5
			h-1.9c1-1.1,4-5.4,5-8.9c0.2-0.9-0.3-1.6-1.6-2.3l0.8-1.5l3.8,4.8l2.5,2.3l-0.1,9.3l-2-0.1l0.2-2.3c0-0.4,0.4-0.7,0.8-0.7h0.1
			l0.2-4.8L60.4,61c-0.1-0.1-0.2-0.2-0.3-0.3l-1.7-2.3C57.2,62.2,57.1,65.6,57.5,68.7z"/>
		<path class="st22" d="M55.7,52.4l-5.6,10.7C49.6,64,50,65.2,51,65.5c0.6,0.3,1.4,0.3,1.9,0.1c0.2-0.1,0.4-0.3,0.5-0.5l3.1-6.6
			c0,0-2.9,7.5-1.2,9.8c4.2,1,9.3,1.1,14,0.1c0.9-0.2,1.7-0.9,1.9-1.9c1-3.9-0.1-8.7-0.9-14.2c0-0.2-0.3-0.4-0.5-0.3
			c-3.8,0.9-8.4,0.8-13.5,0C56.1,51.9,55.8,52.1,55.7,52.4z"/>
	</g>
	<g>
		<path class="st18" d="M74.4,55.7c0-1.4,0.6-1.9,1.6-2.4c0.2-0.1,0.3-0.2,0.4-0.4c0.4-0.7,0.6-1.4,0.8-2.2c0.6-1.3,2.5-0.3,2,0.7
			l-0.7,1.9c4.6-5.6,8.1,1.4,5.4,3.1c-0.2,0.2-3.6,1-4.6,1.1c-0.2,0-0.4,0.1-0.5,0.3c-0.4,0.9-1.3,1.3-2.5,1
			C77.3,57.5,76.2,54.9,74.4,55.7z"/>
		<path class="st17" d="M83.8,52.3c0.8,1.3,0.7,2.5-0.5,3.3c-0.2,0.2-3.6,1-4.6,1.1c-0.1,0-0.2,0.1-0.3,0.1
			c-0.3-1.5-1.8-2.1-1.8-2.2c-0.1,0-0.2,0-0.2,0.1s0,0.2,0.1,0.2c0,0,1.5,0.7,1.7,2.2v0.1c-0.3,0.5-0.7,0.6-1.4,0.6
			c-0.1,0.2-0.1,0.7-0.2,0.8c1.2,0.2,1.7-0.2,2.1-1.1c0.1-0.2,0.3-0.3,0.5-0.3c1.1-0.1,4.5-0.9,4.6-1.1
			C85.1,55.2,84.9,53.6,83.8,52.3z"/>
		<path class="st22" d="M74.4,55.7c0-1.4,0.6-1.9,1.6-2.4c0.2-0.1,0.3-0.2,0.4-0.4c0.4-0.7,0.6-1.4,0.8-2.2c0.6-1.3,2.5-0.3,2,0.7
			l-0.7,1.9c4.6-5.6,8.1,1.4,5.4,3.1c-0.2,0.2-3.6,1-4.6,1.1c-0.2,0-0.4,0.1-0.5,0.3c-0.4,0.9-1.3,1.3-2.5,1
			C77.3,57.5,76.2,54.9,74.4,55.7z"/>
		<path class="st23" d="M76.5,54.4c0,0,1.6,0.7,1.8,2.3"/>
	</g>
	<g>
		<path class="st24" d="M53.3,70.1L53,67.9c0-0.1,0-0.2,0.1-0.3c0.8-0.4,1-1.7,0.7-2.7c-1.3,1.8-4.3,1.2-4.1-1.5
			c-1.2,0.4-1.5,1.1-1.4,2.6c0,0.1-0.1,0.3-0.2,0.3c-1.6,0.9-2.4,4.8-2,5.8c0.4,3.2,5.5,3.7,5.3,0c0-0.1,0.1-0.2,0.2-0.2
			c0.7,0,1.2-0.4,1.5-1C53.3,70.6,53.4,70.4,53.3,70.1z"/>
		<path class="st17" d="M51.2,66.1c0.9,0.1,1.6,0,2.3-0.4c0.1,0.7-0.1,1.3-0.9,1.8c-0.1,0.1-0.2,0.2-0.1,0.3c0.3,1.1,0.4,2.1,0.5,3
			c-0.2,0.4-0.6,0.6-1,0.7c-0.4-0.7-0.6-1.5-0.4-2.4c-0.1-0.3-0.2-0.4-0.5-0.3c-0.1,0-0.2,0.1-0.2,0.2c-0.1,0.9-0.3,1.4,0.3,2.8
			c0.1,0.6-0.1,1.3-0.4,2C49.9,74.5,49,74.5,48,74C49.3,73.4,51,67.2,51.2,66.1z"/>
		<path class="st25" d="M51.6,71.8c-0.6-0.7-0.7-1.6-0.5-2.5"/>
		<path class="st26" d="M49.1,66.7c0.7,0.8,1.5,1.2,2.4,1.1"/>
	</g>
	<g>
		<g>
			<path class="st17" d="M56.5,49.4v2.2c4.2,1,8.6,1,13.4,0v-2.3L56.5,49.4z"/>
			<path class="st20" d="M56.5,49.4v2.2c4.2,1,8.6,1,13.4,0v-2.3L56.5,49.4z"/>
		</g>
		<g>
			<g>
				<polygon class="st27" points="61.4,60.7 61.2,66.1 62.9,66.1 63,60.8 				"/>
				<path class="st28" d="M61.8,64.4c0-1.5,0.4-2.9,1-3.6l-1.2-0.1L61.4,66H62C61.9,65.5,61.8,65,61.8,64.4z"/>
			</g>
			<g>
				<polygon class="st27" points="65.8,60.7 65.7,66.1 67.4,66.1 67.5,60.8 				"/>
				<path class="st28" d="M66.3,64.4c0-1.5,0.4-2.9,1-3.6L66,60.7L65.8,66h0.6C66.4,65.5,66.3,65,66.3,64.4z"/>
			</g>
		</g>
		<g>
			<path class="st18" d="M56.7,51.9c4.1,1,9.8,0.6,13,0L67.1,59c-1.7,0.8-3.5,0.9-5.3,0L56.7,51.9z"/>
			<path class="st17" d="M66.2,52.4c-3,0.3-6.7,0.3-9.5-0.5l5,7C62.1,56.1,63.8,53.7,66.2,52.4z"/>
			<path class="st29" d="M56.3,51.9c2.5,2.4,4.3,4.7,5.2,6.9c0.1,0.2,0.3,0.4,0.6,0.5c2,0.5,3.6,0.5,4.7-0.1
				c0.2-0.1,0.3-0.3,0.4-0.5C68,56.3,69,54,70,51.8c0.1-0.2,0.4-0.3,0.6-0.2c0.2,0.2,0.4,0.4,0.5,0.6c0.1,0.1,0.1,0.3,0,0.5
				c-1.2,2.3-2.4,4.8-3.5,7.6c-0.1,0.2-0.3,0.4-0.5,0.5c-1.5,0.3-3.5,0.4-5.6,0.1c-0.3,0-0.6-0.2-0.8-0.5c-1.6-2.4-3.5-4.8-5.8-7.1
				c-0.1-0.1-0.2-0.3-0.1-0.5c0.1-0.3,0.3-0.6,0.5-0.9C55.6,51.6,56,51.6,56.3,51.9z"/>
			<path class="st18" d="M61.7,60c0-0.3,0-0.7,0.1-1c-0.1-0.1-0.2-0.2-0.2-0.3c-0.9-2.2-2.7-4.5-5.2-6.9c-0.3-0.3-0.7-0.2-0.9,0
				c-0.2,0.3-0.4,0.5-0.5,0.9c-0.1,0.2,0,0.4,0.1,0.5c2.3,2.3,4.2,4.7,5.8,7.1c0.2,0.3,0.5,0.5,0.8,0.5h0.1
				C61.7,60.6,61.7,60.3,61.7,60z"/>
			<g>
				<path class="st19" d="M70.2,52c-0.8-0.4-2.4,0.9-3.7,3c-1.3,2.1-1.7,4.1-0.9,4.5c0.3,0.2,0.9,0,1.4-0.4
					C67.4,57.6,69.5,53.4,70.2,52L70.2,52z"/>
				<path class="st30" d="M70.2,52c-0.7,1.4-2.8,5.6-3.2,7.1c0.7-0.5,1.6-1.5,2.3-2.6C70.5,54.4,70.9,52.4,70.2,52z"/>
			</g>
			<path class="st20" d="M56.3,51.9c2.5,2.4,4.3,4.7,5.2,6.9c0.1,0.2,0.3,0.4,0.6,0.5c2,0.5,3.6,0.5,4.7-0.1
				c0.2-0.1,0.3-0.3,0.4-0.5C68,56.3,69,54,70,51.8c0.1-0.2,0.4-0.3,0.6-0.2c0.2,0.2,0.4,0.4,0.5,0.6c0.1,0.1,0.1,0.3,0,0.5
				c-1.2,2.3-2.4,4.8-3.5,7.6c-0.1,0.2-0.3,0.4-0.5,0.5c-1.5,0.3-3.5,0.4-5.6,0.1c-0.3,0-0.6-0.2-0.8-0.5c-1.6-2.4-3.5-4.8-5.8-7.1
				c-0.1-0.1-0.2-0.3-0.1-0.5c0.1-0.3,0.3-0.6,0.5-0.9C55.6,51.6,56,51.6,56.3,51.9z"/>
		</g>
		<g>
			<path class="st18" d="M60.4,72.5c-0.1-2.1-0.1-4.1,0.1-5.9c0-0.2,0.2-0.4,0.4-0.5c2.5-0.7,4.9-0.7,7.1,0c0.2,0.1,0.3,0.2,0.3,0.4
				c0,2.1-0.1,4-0.4,5.8c0,0.3-0.3,0.6-0.6,0.7c-2.1,0.9-4.2,1-6.4,0.2C60.6,73.2,60.4,72.9,60.4,72.5z"/>
			<path class="st17" d="M63.4,73.2c-0.3-0.1-0.6-0.4-0.6-0.8c-0.1-2.1-0.1-4.1,0.1-5.9c0-0.2,0.2-0.4,0.4-0.5
				c0.7-0.2,1.3-0.3,2-0.4c-1.4-0.1-2.9,0.1-4.3,0.5c-0.2,0.1-0.4,0.2-0.4,0.5c-0.2,1.9-0.2,3.9-0.1,5.9c0,0.4,0.3,0.7,0.6,0.8
				c1.5,0.5,3,0.6,4.5,0.4C64.8,73.6,64.1,73.4,63.4,73.2z"/>
			<path class="st19" d="M67.4,66.1c-1.1-0.4-2.3-0.5-3.4-0.5v0.2c0.8,0.1,1.6,0.2,2.4,0.5c0.2,0.1,0.3,0.2,0.3,0.4
				c0,2.1-0.1,4-0.4,5.8c0,0.3-0.3,0.6-0.6,0.7c-0.5,0.2-1,0.4-1.5,0.5c0.9-0.1,1.7-0.3,2.5-0.7c0.3-0.1,0.5-0.4,0.6-0.7
				c0.3-1.8,0.4-3.7,0.4-5.8C67.7,66.3,67.6,66.2,67.4,66.1z"/>
			<path class="st18" d="M62.1,73.1c-0.3-0.1-0.6-0.4-0.6-0.8c-0.1-2.1-0.1-4.1,0.1-5.9c0-0.1,0.1-0.2,0.2-0.3l0,0
				c-0.2,0.1-0.4,0.2-0.4,0.5c-0.2,1.9-0.2,3.9-0.1,5.9c0,0.4,0.3,0.7,0.6,0.8c0.8,0.3,1.6,0.4,2.4,0.5v-0.2
				C63.6,73.5,62.9,73.3,62.1,73.1z"/>
			<path class="st20" d="M60.4,72.5c-0.1-2.1-0.1-4.1,0.1-5.9c0-0.2,0.2-0.4,0.4-0.5c2.5-0.7,4.9-0.7,7.1,0c0.2,0.1,0.3,0.2,0.3,0.4
				c0,2.1-0.1,4-0.4,5.8c0,0.3-0.3,0.6-0.6,0.7c-2.1,0.9-4.2,1-6.4,0.2C60.6,73.2,60.4,72.9,60.4,72.5z"/>
		</g>
	</g>
	<g>
		<g>
			<path class="st7" d="M58.3,21.1l-0.2-2.9c4.6-1,8.9-0.7,12.8,1.3l0.2,3.2L58.3,21.1z"/>
			<path class="st8" d="M68.6,19.6c0,0.9-0.1,1.8-0.4,2.6l2.2,0.3l-0.2-3.2c-0.6-0.3-1.1-0.5-1.7-0.7C68.6,18.9,68.6,19.2,68.6,19.6
				z"/>
			<path class="st28" d="M60.9,20.2c-0.1-1,0.2-1.9,0.7-2.7c-1.1,0.2-2.2,0.4-3.3,0.7v3h2.8C61,20.8,60.9,20.5,60.9,20.2z"/>
			<path class="st9" d="M57.9,21.2l0.2-3.1c4.6-1,8.9-0.7,12.8,1.3l0.2,3.2L57.9,21.2z"/>
		</g>
		<g>
			<circle class="st31" cx="62.8" cy="35.3" r="15.7"/>
			<path class="st12" d="M66.2,48.5c-8.4,0-15.2-6.8-15.2-15.2c0-4.8,2.2-9,5.6-11.8c-5.4,2.3-9.2,7.7-9.2,14
				c0,8.4,6.8,15.2,15.2,15.2c3.6,0,6.9-1.3,9.5-3.4C70.4,48.1,68.4,48.5,66.2,48.5z"/>
			<path class="st28" d="M64.1,49.8c-8.7,0-15.7-7-15.7-15.7c0-2.7,0.7-5.3,1.9-7.6c-1.8,2.5-2.8,5.5-2.8,8.8
				c0,8.4,6.8,15.2,15.2,15.2c2.8,0,5.4-0.7,7.6-2C68.4,49.3,66.3,49.8,64.1,49.8z"/>
			<path class="st11" d="M59,20.6c0,0,12.6-3.7,18.1,9.5C77.1,30.1,72.8,20.8,59,20.6z"/>
		</g>
	</g>
	<g>
		<g>
			<g>
				<path class="st12" d="M66.9,47.5c-4.8,0-8.8-3.5-10.1-8.2c-0.3,0.1-0.6,0.2-1,0.2c-1.1,0-2.1-0.8-2.3-1.9
					c-0.1,0.3-0.2,0.6-0.2,1c0,1.2,1,2.2,2.2,2.2c0.3,0,0.6-0.1,0.9-0.2c1.2,4.4,5,7.6,9.5,7.6c2.1,0,4.1-0.7,5.7-1.9
					C70.3,47,68.6,47.5,66.9,47.5z"/>
				<path class="st32" d="M66.3,26.6c-5,0-9.2,4-9.8,9.1c-0.2-0.1-0.4-0.1-0.6-0.1c-1.2,0-2.2,1-2.2,2.2s1,2.2,2.2,2.2
					c0.3,0,0.6-0.1,0.9-0.2c1.2,4.4,5,7.6,9.5,7.6c5.4,0,9.9-4.7,9.9-10.4S71.7,26.6,66.3,26.6z"/>
				<path class="st33" d="M65.9,28c5.4,0,9.9,4.7,9.9,10.4c0,0.8-0.1,1.5-0.2,2.2c0.4-1.1,0.6-2.3,0.6-3.6c0-5.8-4.4-10.4-9.9-10.4
					c-4.7,0-8.7,3.5-9.6,8.2C58,30.8,61.7,28,65.9,28z"/>
				<path class="st9" d="M66.3,26.6c-5,0-9.2,4-9.8,9.1c-0.2-0.1-0.4-0.1-0.6-0.1c-1.2,0-2.2,1-2.2,2.2s1,2.2,2.2,2.2
					c0.3,0,0.6-0.1,0.9-0.2c1.2,4.4,5,7.6,9.5,7.6c5.4,0,9.9-4.7,9.9-10.4S71.7,26.6,66.3,26.6z"/>
				<path class="st17" d="M67,44.2c-3.8,0-6.8-3-6.8-6.8c0-1.5,0.5-2.9,1.3-4.1c-1.1,1.2-1.8,2.8-1.8,4.6c0,3.8,3,6.8,6.8,6.8
					c2.2,0,4.2-1.1,5.5-2.7C70.7,43.3,69,44.2,67,44.2z"/>
			</g>
			<g>
				<circle class="st17" cx="55.8" cy="37.8" r="0.7"/>
				<circle class="st12" cx="56" cy="37.7" r="0.7"/>
			</g>
		</g>
		<g>
			<g>
				<ellipse class="st34" cx="67.1" cy="37.2" rx="6.7" ry="6.9"/>
				<path class="st35" d="M68.3,43.5c-3.7,0-6.7-3.1-6.7-6.9c0-2.4,1.2-4.5,2.9-5.7c-2.4,1-4.1,3.5-4.1,6.4c0,3.8,3,6.9,6.7,6.9
					c1.4,0,2.7-0.4,3.8-1.2C70.1,43.3,69.2,43.5,68.3,43.5z"/>
				<path class="st36" d="M67,30.3c-2,0-3.8,0.9-5,2.3c1.2-1.1,2.8-1.8,4.5-1.8c3.7,0,6.7,3.1,6.7,6.9c0,1.8-0.7,3.4-1.7,4.6
					c1.4-1.3,2.2-3.1,2.2-5.1C73.8,33.4,70.8,30.3,67,30.3z"/>
				<ellipse class="st9" cx="67.1" cy="37.2" rx="6.7" ry="6.9"/>
			</g>
			<g>
				
					<ellipse transform="matrix(0.8293 -0.5589 0.5589 0.8293 -7.8433 45.536)" class="st36" cx="70.6" cy="35.6" rx="0.8" ry="1.1"/>
				<path class="st37" d="M66.1,32.4L66.1,32.4c-2.5-0.3-4.4,3.5-3.2,5.5c0,0.1,0.1,0.2,0.1,0.2l0,0l0,0c0.1,0.1,0.2,0.2,0.4,0.3
					c0.5,0.2,1.1-0.1,1.3-0.6c0,0,0,0,0-0.1l0,0l0,0c0.1-0.3,0-0.6-0.1-0.8c-0.1-1.4,0.4-2,1.6-2.9c0.2,0,0.3-0.1,0.4-0.3l0,0l0,0
					c0.1-0.1,0.1-0.1,0.1-0.2C66.9,33.1,66.7,32.6,66.1,32.4C66.3,32.4,66.2,32.4,66.1,32.4z"/>
				<path class="st37" d="M66.5,41L66.5,41c0.8,1.2,3.2,0.7,3.7-0.6v-0.1l0,0l0,0c0-0.1,0-0.2,0-0.3c-0.1-0.3-0.4-0.5-0.8-0.4l0,0
					l0,0l0,0c-0.2,0.1-0.3,0.2-0.3,0.3c-0.6,0.6-1.1,0.6-1.9,0.4c-0.1-0.1-0.2-0.1-0.3-0.1l0,0l0,0h-0.1c-0.3,0.1-0.4,0.4-0.3,0.6
					C66.5,40.9,66.5,41,66.5,41z"/>
			</g>
		</g>
	</g>
	<g>
		<g>
			<g>
				<g>
					<g id="XMLID_1_">
						<g>
							<path class="st7" d="M46.4,31.7c0.4-0.3,0.7-0.5,1.1-0.6c0.6,0.7,3.1,4.2,1.7,12.8c-0.3,0.1-1,0.3-1.9,0
								c0.8-1,0.9-3.9,0.8-5.7c0-0.1,0-0.3,0-0.4C47.9,35.9,47.5,32.6,46.4,31.7z"/>
							<path class="st17" d="M47.3,37.9c0.1,2.4-0.1,4.1-0.4,5c-0.4-0.5-0.8-2.5-0.9-4.8c-0.1-2.5,0.1-4.6,0.4-5
								c0.1,0.2,0.1,0.3,0.2,0.5C47,34.6,47.2,36,47.3,37.9z"/>
							<path class="st7" d="M47,42.9c-0.2,0.5-0.3,0.7-0.4,0.7l0,0c-0.1,0-0.4-0.2-0.8-1.5c-0.3-1.1-0.6-2.6-0.7-4.2
								c-0.2-3.8,0.5-5.7,0.8-5.8l0,0c0.1,0,0.4,0.3,0.6,0.9c-0.4,0.4-0.6,2.5-0.4,5C46.2,40.4,46.5,42.4,47,42.9z"/>
							<path class="st38" d="M45.5,31.6c0.6-0.7,1.2-1,2-1.2c0.1,0,0.2,0,0.3,0.1c0.2,0.1,3.8,3.5,2,13.7c0,0.1-0.1,0.2-0.2,0.3
								c0,0-0.5,0.2-1.3,0.3c-0.6,0-1.3-0.1-2.1-0.5c0,0,0,0-0.1,0c-0.4-0.2-0.8-0.8-1.2-1.9c-0.4-1.2-0.6-2.7-0.7-4.3
								C44.3,36,44.4,32.3,45.5,31.6L45.5,31.6z M46.4,31.7c1.1,0.8,1.5,4.2,1.6,6.1c0,0.1,0,0.2,0,0.4c0.1,1.9-0.1,4.7-0.8,5.7
								c0.9,0.3,1.6,0.1,1.9,0c1.5-8.6-1.1-12.1-1.7-12.8C47.1,31.3,46.8,31.4,46.4,31.7z M47.3,37.9c-0.1-1.9-0.4-3.3-0.7-4.2
								c-0.1-0.2-0.1-0.4-0.2-0.5c-0.2-0.6-0.5-0.9-0.6-0.9l0,0c-0.3,0-1,2-0.8,5.8c0.1,1.6,0.3,3.1,0.7,4.2
								c0.4,1.2,0.7,1.5,0.8,1.5l0,0c0.1,0,0.3-0.3,0.4-0.7C47.2,42,47.5,40.3,47.3,37.9z"/>
						</g>
					</g>
				</g>
			</g>
			<path class="st39" d="M45.4,33.3l0.8,0.5c0,0-0.6,3,0.2,7.2l-0.8,0.4C44.9,38.7,44.8,35.9,45.4,33.3z"/>
		</g>
		<g>
			<path class="st28" d="M49.5,41.2c-0.3,0.6-0.9,0.4-1.5-0.1c-0.1,0.8-0.2,1.9-0.6,2.6c0.6,0.4,1.2,0.4,1.8,0.1
				C49.3,42.9,49.4,41.9,49.5,41.2z"/>
			<g>
				<path class="st8" d="M48.6,33.1c-0.2-0.5-0.5-1.1-0.8-1.6c-0.4-0.1-0.8,0.1-1,0.5c0.3,0.5,0.5,1,0.6,1.5
					C47.8,33.2,48.2,33,48.6,33.1z"/>
				<path class="st39" d="M48.6,33.1c-0.4-0.1-0.8,0-1.2,0.5c0.1,0.4,0.2,0.8,0.3,1.2c0.4-0.6,1-0.8,1.4-0.3
					C48.9,34,48.8,33.6,48.6,33.1z"/>
			</g>
		</g>
	</g>
	<g>
		<path class="st18" d="M67.7,89.3c3.9-1,7.5,0.1,8.7,3.1c0.1,0.3,0.2,0.6,0.1,0.9c0,0.5-0.1,0.9-0.3,1.3C76,95,75.5,95.3,75,95.4
			c-4.5,0.5-9.1,0.1-13.6-1c-0.1-1.5,0-3.3,0.3-5.4c-0.4-1.3-0.1-2.8,0.5-4.6c1.3,1.6,6,2.1,7.9,0.2c1,1.5,0.9,3.1,0,4.4L67.7,89.3z
			"/>
		<path class="st17" d="M64.1,93.1c0.1,0.4,0.4,0.7,0.8,0.8c2.8,0.7,4.5,0.8,7.4,0.8c1.2,0,2.4,0,3.6-0.2l0,0
			c-0.2,0.5-0.7,0.8-1.2,0.9c-3.9,0.5-7.9,0.2-11.8-0.7c-0.5-0.1-1-0.2-1.5-0.4c-0.1-1.4,0-3.2,0.3-5.3v-0.1c-0.2-0.7-0.2-1.6,0-2.5
			c0.1-0.4,0.2-0.8,0.3-1.3c0.1-0.1,0.2-0.3,0.3-0.4s0.1-0.2,0.2-0.2c0.7,0.5,1.5,0.9,2.3,1.1c-0.4,0.8-0.9,2.4,0.1,3.1
			c0.2,0.2,0,0.8-0.2,0.9C63.8,90,63.8,91.6,64.1,93.1z"/>
		<path class="st15" d="M67.7,89.3c3.9-1,7.5,0.1,8.7,3.1c0.1,0.3,0.2,0.6,0.1,0.9c0,0.5-0.1,0.9-0.3,1.3C76,95,75.5,95.3,75,95.4
			c-4.5,0.5-9.1,0.1-13.6-1c-0.1-1.5,0-3.3,0.3-5.4c-0.4-1.3-0.1-2.8,0.5-4.6c1.3,1.6,6,2.1,7.9,0.2c1,1.5,0.9,3.1,0,4.4L67.7,89.3z
			"/>
	</g>
	<g>
		<path class="st18" d="M53.8,84.6c2.2,1.7,5,1.6,8.1,0.3c0.6,1.3,0.4,2.6-0.3,3.9c-0.1,0.2-0.1,0.4,0,0.5c3.1,5,0.5,7.9-5.7,8.2
			c-0.1,0-0.1,0-0.2,0c-4.5-0.1-6.7-5.5-2.5-8.7c0.2-0.2,0.3-0.5,0.1-0.7C52.7,86.8,53,85.5,53.8,84.6z"/>
		<path class="st17" d="M56.7,89.4c0.2-0.2,0.3-0.5,0.1-0.7c-0.6-1-0.6-2-0.1-2.9c-0.8-0.2-1.6-0.6-2.3-1.1c-0.9,1-1.1,2.3-0.4,3.6
			c0.1,0.2,0.1,0.5-0.1,0.7c-4.2,3.2-2,8.6,2.5,8.7c0.1,0,0.1,0,0.2,0c0.2,0,0.5,0,0.7-0.1C54.2,96.3,53.2,92.1,56.7,89.4z"/>
		<path class="st9" d="M53.8,84.6c2.2,1.7,5,1.6,8.1,0.3c0.6,1.3,0.4,2.6-0.3,3.9c-0.1,0.2-0.1,0.4,0,0.5c3.1,5,0.5,7.9-5.7,8.2
			c-0.1,0-0.1,0-0.2,0c-4.5-0.1-6.7-5.5-2.5-8.7c0.2-0.2,0.3-0.5,0.1-0.7C52.7,86.8,53,85.5,53.8,84.6z"/>
		<path class="st22" d="M55.1,89.3c1.5-0.6,2.8-0.3,4,0.6"/>
	</g>
</g>
<g>
	
		<linearGradient id="SVGID_1_" gradientUnits="userSpaceOnUse" x1="-319.3466" y1="-2434.8743" x2="-316.2847" y2="-2434.8743" gradientTransform="matrix(0.3472 0.9378 -0.9378 0.3472 -2090.2253 1171.397)">
		<stop  offset="0" style="stop-color:#47C1F0"/>
		<stop  offset="0.1106" style="stop-color:#49C3ED"/>
		<stop  offset="0.2045" style="stop-color:#4FC7E2"/>
		<stop  offset="0.2923" style="stop-color:#59D0D1"/>
		<stop  offset="0.3763" style="stop-color:#68DBB8"/>
		<stop  offset="0.4578" style="stop-color:#7BEA98"/>
		<stop  offset="0.5362" style="stop-color:#92FC71"/>
		<stop  offset="0.5497" style="stop-color:#96FF6A"/>
		<stop  offset="0.5641" style="stop-color:#8CF871"/>
		<stop  offset="0.6345" style="stop-color:#62D78F"/>
		<stop  offset="0.7061" style="stop-color:#3EBCA7"/>
		<stop  offset="0.7781" style="stop-color:#23A7BA"/>
		<stop  offset="0.8506" style="stop-color:#1098C8"/>
		<stop  offset="0.9242" style="stop-color:#048FD0"/>
		<stop  offset="1" style="stop-color:#008CD3"/>
	</linearGradient>
	<path class="st40" d="M84.3,27.4c-0.3-0.8-1.2-1.2-2-0.9s-1.2,1.2-0.9,2c0.3,0.8,1.2,1.2,2,0.9C84.2,29.1,84.6,28.2,84.3,27.4z
		 M82,28.3c-0.2-0.5,0.1-1,0.6-1.2s1,0.1,1.2,0.6s-0.1,1-0.6,1.2C82.7,29,82.2,28.8,82,28.3z"/>
	
		<linearGradient id="SVGID_2_" gradientUnits="userSpaceOnUse" x1="-333.973" y1="-2453.7141" x2="-331.5559" y2="-2453.7141" gradientTransform="matrix(0.3472 0.9378 -0.9378 0.3472 -2090.2253 1171.397)">
		<stop  offset="0" style="stop-color:#47C1F0"/>
		<stop  offset="0.1106" style="stop-color:#49C3ED"/>
		<stop  offset="0.2045" style="stop-color:#4FC7E2"/>
		<stop  offset="0.2923" style="stop-color:#59D0D1"/>
		<stop  offset="0.3763" style="stop-color:#68DBB8"/>
		<stop  offset="0.4578" style="stop-color:#7BEA98"/>
		<stop  offset="0.5362" style="stop-color:#92FC71"/>
		<stop  offset="0.5497" style="stop-color:#96FF6A"/>
		<stop  offset="0.5641" style="stop-color:#8CF871"/>
		<stop  offset="0.6345" style="stop-color:#62D78F"/>
		<stop  offset="0.7061" style="stop-color:#3EBCA7"/>
		<stop  offset="0.7781" style="stop-color:#23A7BA"/>
		<stop  offset="0.8506" style="stop-color:#1098C8"/>
		<stop  offset="0.9242" style="stop-color:#048FD0"/>
		<stop  offset="1" style="stop-color:#008CD3"/>
	</linearGradient>
	<path class="st41" d="M96.5,7c-0.2-0.6-0.9-0.9-1.6-0.7c-0.6,0.2-0.9,0.9-0.7,1.6c0.2,0.6,0.9,0.9,1.6,0.7
		C96.4,8.3,96.7,7.6,96.5,7z M94.7,7.6c-0.1-0.4,0.1-0.8,0.4-0.9s0.8,0.1,0.9,0.4c0.1,0.4-0.1,0.8-0.4,0.9C95.2,8.2,94.8,8,94.7,7.6
		z"/>
	
		<linearGradient id="SVGID_3_" gradientUnits="userSpaceOnUse" x1="-334.0692" y1="-2447.9844" x2="-331.1965" y2="-2447.9844" gradientTransform="matrix(0.3472 0.9378 -0.9378 0.3472 -2090.2253 1171.397)">
		<stop  offset="0" style="stop-color:#47C1F0"/>
		<stop  offset="0.1106" style="stop-color:#49C3ED"/>
		<stop  offset="0.2045" style="stop-color:#4FC7E2"/>
		<stop  offset="0.2923" style="stop-color:#59D0D1"/>
		<stop  offset="0.3763" style="stop-color:#68DBB8"/>
		<stop  offset="0.4578" style="stop-color:#7BEA98"/>
		<stop  offset="0.5362" style="stop-color:#92FC71"/>
		<stop  offset="0.5497" style="stop-color:#96FF6A"/>
		<stop  offset="0.5641" style="stop-color:#8CF871"/>
		<stop  offset="0.6345" style="stop-color:#62D78F"/>
		<stop  offset="0.7061" style="stop-color:#3EBCA7"/>
		<stop  offset="0.7781" style="stop-color:#23A7BA"/>
		<stop  offset="0.8506" style="stop-color:#1098C8"/>
		<stop  offset="0.9242" style="stop-color:#048FD0"/>
		<stop  offset="1" style="stop-color:#008CD3"/>
	</linearGradient>
	<path class="st42" d="M91.3,9c-0.3-0.7-1.1-1.1-1.8-0.8c-0.7,0.3-1.1,1.1-0.8,1.8c0.3,0.7,1.1,1.1,1.8,0.8
		C91.2,10.6,91.6,9.8,91.3,9z M89.1,9.8c-0.2-0.5,0.1-1,0.5-1.1c0.5-0.2,1,0.1,1.1,0.5c0.2,0.5-0.1,1-0.5,1.1
		C89.8,10.5,89.3,10.3,89.1,9.8z"/>
	
		<linearGradient id="SVGID_4_" gradientUnits="userSpaceOnUse" x1="-325.862" y1="-2437.916" x2="-321.6748" y2="-2437.916" gradientTransform="matrix(0.3472 0.9378 -0.9378 0.3472 -2090.2253 1171.397)">
		<stop  offset="0" style="stop-color:#47C1F0"/>
		<stop  offset="0.1106" style="stop-color:#49C3ED"/>
		<stop  offset="0.2045" style="stop-color:#4FC7E2"/>
		<stop  offset="0.2923" style="stop-color:#59D0D1"/>
		<stop  offset="0.3763" style="stop-color:#68DBB8"/>
		<stop  offset="0.4578" style="stop-color:#7BEA98"/>
		<stop  offset="0.5362" style="stop-color:#92FC71"/>
		<stop  offset="0.5497" style="stop-color:#96FF6A"/>
		<stop  offset="0.5641" style="stop-color:#8CF871"/>
		<stop  offset="0.6345" style="stop-color:#62D78F"/>
		<stop  offset="0.7061" style="stop-color:#3EBCA7"/>
		<stop  offset="0.7781" style="stop-color:#23A7BA"/>
		<stop  offset="0.8506" style="stop-color:#1098C8"/>
		<stop  offset="0.9242" style="stop-color:#048FD0"/>
		<stop  offset="1" style="stop-color:#008CD3"/>
	</linearGradient>
	<path class="st43" d="M85.6,20.6c-0.4-1.1-1.6-1.6-2.7-1.2s-1.6,1.6-1.2,2.7s1.6,1.6,2.7,1.2C85.5,22.9,86,21.7,85.6,20.6z
		 M82.4,21.8c-0.2-0.7,0.1-1.4,0.8-1.6c0.7-0.2,1.4,0.1,1.6,0.8c0.2,0.7-0.1,1.4-0.8,1.6C83.4,22.8,82.7,22.4,82.4,21.8z"/>
	
		<linearGradient id="SVGID_5_" gradientUnits="userSpaceOnUse" x1="-341.552" y1="-2450.322" x2="-336.9132" y2="-2450.322" gradientTransform="matrix(0.3472 0.9378 -0.9378 0.3472 -2090.2253 1171.397)">
		<stop  offset="0" style="stop-color:#47C1F0"/>
		<stop  offset="0.1106" style="stop-color:#49C3ED"/>
		<stop  offset="0.2045" style="stop-color:#4FC7E2"/>
		<stop  offset="0.2923" style="stop-color:#59D0D1"/>
		<stop  offset="0.3763" style="stop-color:#68DBB8"/>
		<stop  offset="0.4578" style="stop-color:#7BEA98"/>
		<stop  offset="0.5362" style="stop-color:#92FC71"/>
		<stop  offset="0.5497" style="stop-color:#96FF6A"/>
		<stop  offset="0.5641" style="stop-color:#8CF871"/>
		<stop  offset="0.6345" style="stop-color:#62D78F"/>
		<stop  offset="0.7061" style="stop-color:#3EBCA7"/>
		<stop  offset="0.7781" style="stop-color:#23A7BA"/>
		<stop  offset="0.8506" style="stop-color:#1098C8"/>
		<stop  offset="0.9242" style="stop-color:#048FD0"/>
		<stop  offset="1" style="stop-color:#008CD3"/>
	</linearGradient>
	<path class="st44" d="M92.1,1.7c-0.4-1.2-1.8-1.8-3-1.4s-1.8,1.8-1.4,3s1.8,1.8,3,1.4C92,4.2,92.6,2.9,92.1,1.7z M88.6,3
		c-0.3-0.7,0.1-1.5,0.8-1.8S91,1.3,91.3,2s-0.1,1.5-0.8,1.8S88.9,3.7,88.6,3z"/>
	
		<linearGradient id="SVGID_6_" gradientUnits="userSpaceOnUse" x1="-767.142" y1="2909.9031" x2="-764.5986" y2="2909.9031" gradientTransform="matrix(0.9378 -0.3472 0.3472 0.9378 -205.7265 -2979.5391)">
		<stop  offset="0" style="stop-color:#47C1F0"/>
		<stop  offset="9.481707e-02" style="stop-color:#4ABFF0"/>
		<stop  offset="0.1753" style="stop-color:#55B9EE"/>
		<stop  offset="0.2505" style="stop-color:#66AFEB"/>
		<stop  offset="0.3226" style="stop-color:#7FA0E8"/>
		<stop  offset="0.3924" style="stop-color:#9F8DE3"/>
		<stop  offset="0.4605" style="stop-color:#C676DD"/>
		<stop  offset="0.5261" style="stop-color:#F45CD7"/>
		<stop  offset="0.5408" style="stop-color:#FF55D5"/>
		<stop  offset="0.5447" style="stop-color:#FB56D5"/>
		<stop  offset="0.5994" style="stop-color:#C162D5"/>
		<stop  offset="0.6555" style="stop-color:#8D6ED4"/>
		<stop  offset="0.7118" style="stop-color:#6277D4"/>
		<stop  offset="0.7683" style="stop-color:#3F7FD3"/>
		<stop  offset="0.8251" style="stop-color:#2384D3"/>
		<stop  offset="0.8823" style="stop-color:#1089D3"/>
		<stop  offset="0.9402" style="stop-color:#048BD3"/>
		<stop  offset="1" style="stop-color:#008CD3"/>
	</linearGradient>
	<path class="st45" d="M85.9,14.1c-0.7,0.2-1,1-0.8,1.6c0.2,0.7,1,1,1.6,0.8c0.7-0.2,1-1,0.8-1.6C87.3,14.2,86.6,13.9,85.9,14.1z
		 M86.6,16c-0.4,0.1-0.8-0.1-1-0.5c-0.1-0.4,0.1-0.8,0.5-1c0.4-0.1,0.8,0.1,1,0.5S87,15.9,86.6,16z"/>
	
		<linearGradient id="SVGID_7_" gradientUnits="userSpaceOnUse" x1="-765.1441" y1="2902.4861" x2="-762.7269" y2="2902.4861" gradientTransform="matrix(0.9378 -0.3472 0.3472 0.9378 -205.7265 -2979.5391)">
		<stop  offset="0" style="stop-color:#47C1F0"/>
		<stop  offset="9.481707e-02" style="stop-color:#4ABFF0"/>
		<stop  offset="0.1753" style="stop-color:#55B9EE"/>
		<stop  offset="0.2505" style="stop-color:#66AFEB"/>
		<stop  offset="0.3226" style="stop-color:#7FA0E8"/>
		<stop  offset="0.3924" style="stop-color:#9F8DE3"/>
		<stop  offset="0.4605" style="stop-color:#C676DD"/>
		<stop  offset="0.5261" style="stop-color:#F45CD7"/>
		<stop  offset="0.5408" style="stop-color:#FF55D5"/>
		<stop  offset="0.5447" style="stop-color:#FB56D5"/>
		<stop  offset="0.5994" style="stop-color:#C162D5"/>
		<stop  offset="0.6555" style="stop-color:#8D6ED4"/>
		<stop  offset="0.7118" style="stop-color:#6277D4"/>
		<stop  offset="0.7683" style="stop-color:#3F7FD3"/>
		<stop  offset="0.8251" style="stop-color:#2384D3"/>
		<stop  offset="0.8823" style="stop-color:#1089D3"/>
		<stop  offset="0.9402" style="stop-color:#048BD3"/>
		<stop  offset="1" style="stop-color:#008CD3"/>
	</linearGradient>
	<path class="st46" d="M85.2,6.5c-0.6,0.2-0.9,0.9-0.7,1.6C84.7,8.7,85.4,9,86,8.8s0.9-0.9,0.7-1.6C86.5,6.6,85.8,6.3,85.2,6.5z
		 M85.9,8.3c-0.4,0.1-0.8-0.1-0.9-0.4c-0.2-0.4,0-0.8,0.3-0.9c0.4-0.1,0.8,0.1,0.9,0.4S86.2,8.2,85.9,8.3z"/>
	
		<linearGradient id="SVGID_8_" gradientUnits="userSpaceOnUse" x1="-762.1577" y1="2912.021" x2="-758.3192" y2="2912.021" gradientTransform="matrix(0.9378 -0.3472 0.3472 0.9378 -205.7265 -2979.5391)">
		<stop  offset="0" style="stop-color:#47C1F0"/>
		<stop  offset="9.481707e-02" style="stop-color:#4ABFF0"/>
		<stop  offset="0.1753" style="stop-color:#55B9EE"/>
		<stop  offset="0.2505" style="stop-color:#66AFEB"/>
		<stop  offset="0.3226" style="stop-color:#7FA0E8"/>
		<stop  offset="0.3924" style="stop-color:#9F8DE3"/>
		<stop  offset="0.4605" style="stop-color:#C676DD"/>
		<stop  offset="0.5261" style="stop-color:#F45CD7"/>
		<stop  offset="0.5408" style="stop-color:#FF55D5"/>
		<stop  offset="0.5447" style="stop-color:#FB56D5"/>
		<stop  offset="0.5994" style="stop-color:#C162D5"/>
		<stop  offset="0.6555" style="stop-color:#8D6ED4"/>
		<stop  offset="0.7118" style="stop-color:#6277D4"/>
		<stop  offset="0.7683" style="stop-color:#3F7FD3"/>
		<stop  offset="0.8251" style="stop-color:#2384D3"/>
		<stop  offset="0.8823" style="stop-color:#1089D3"/>
		<stop  offset="0.9402" style="stop-color:#048BD3"/>
		<stop  offset="1" style="stop-color:#008CD3"/>
	</linearGradient>
	<path class="st47" d="M91.7,13.5c-1,0.4-1.5,1.5-1.1,2.5s1.5,1.5,2.5,1.1s1.5-1.5,1.1-2.5C93.8,13.7,92.7,13.1,91.7,13.5z
		 M92.8,16.4c-0.6,0.2-1.3-0.1-1.5-0.7s0.1-1.3,0.7-1.5s1.3,0.1,1.5,0.7C93.7,15.5,93.4,16.2,92.8,16.4z"/>
	
		<linearGradient id="SVGID_9_" gradientUnits="userSpaceOnUse" x1="-768.1019" y1="2918.4854" x2="-765.2701" y2="2918.4854" gradientTransform="matrix(0.9378 -0.3472 0.3472 0.9378 -205.7265 -2979.5391)">
		<stop  offset="0" style="stop-color:#47C1F0"/>
		<stop  offset="9.481707e-02" style="stop-color:#4ABFF0"/>
		<stop  offset="0.1753" style="stop-color:#55B9EE"/>
		<stop  offset="0.2505" style="stop-color:#66AFEB"/>
		<stop  offset="0.3226" style="stop-color:#7FA0E8"/>
		<stop  offset="0.3924" style="stop-color:#9F8DE3"/>
		<stop  offset="0.4605" style="stop-color:#C676DD"/>
		<stop  offset="0.5261" style="stop-color:#F45CD7"/>
		<stop  offset="0.5408" style="stop-color:#FF55D5"/>
		<stop  offset="0.5447" style="stop-color:#FB56D5"/>
		<stop  offset="0.5994" style="stop-color:#C162D5"/>
		<stop  offset="0.6555" style="stop-color:#8D6ED4"/>
		<stop  offset="0.7118" style="stop-color:#6277D4"/>
		<stop  offset="0.7683" style="stop-color:#3F7FD3"/>
		<stop  offset="0.8251" style="stop-color:#2384D3"/>
		<stop  offset="0.8823" style="stop-color:#1089D3"/>
		<stop  offset="0.9402" style="stop-color:#048BD3"/>
		<stop  offset="1" style="stop-color:#008CD3"/>
	</linearGradient>
	<path class="st48" d="M88.1,22.3c-0.7,0.3-1.1,1.1-0.8,1.8c0.3,0.7,1.1,1.1,1.8,0.8c0.7-0.3,1.1-1.1,0.8-1.8
		C89.6,22.4,88.8,22,88.1,22.3z M88.9,24.4c-0.4,0.2-0.9-0.1-1.1-0.5s0.1-0.9,0.5-1.1s0.9,0.1,1.1,0.5
		C89.5,23.7,89.3,24.2,88.9,24.4z"/>
</g>
<g>
	<path class="st6" d="M127.7,59.4c-0.5-0.1-0.9-0.3-1.3-0.6c-0.9-0.6-2.1-1.8-2.3-4.3c0,0,0,0,0,0c0,0,0,0,0-0.1
		c0-2,0.8-3.9,2.4-5.8c-0.3-0.3-0.5-0.7-0.7-1.1c-1.2-2.5,0-5.6,1.3-7.6c2.4-3.7,3.3-5.6,1.5-7.5c-0.1-0.1-0.2-0.2-0.3-0.3
		c-0.3,0.7-0.7,1.4-1.1,2c-0.4,0.6-0.5,1.4-0.5,2c-0.4,7.1-3.6,10.9-6.2,12.8c-0.1,0.1-0.2,0.1-0.2,0.2c-1.5,1-3.2,1.8-5.3,1.3
		c-0.2,0-0.3-0.1-0.5-0.1c0,0,0,0,0,0c-1.3-0.5-2.2-1.6-2.5-3.1c-0.3-0.1-0.6-0.3-0.9-0.5c-0.8-0.5-1.4-1.1-1.9-1.8
		c-1.2,0.4-2.6,0.4-4,0.1c-0.2-0.1-0.5-0.1-0.7-0.2c0,0,0,0,0,0c0,0,0,0,0,0c-3-1.3-3.6-5-2.5-7.9c0.3-1,1-1.2,1.2-1.3
		c0.2,0,0.4,0,0.6,0c0.3,0.1,0.6,0.3,0.8,0.5c0.3,0.4,0.3,1,0.1,1.6l0,0c-0.3,0.9,0,1.9,0.8,2.5c0.3,0.2,0.6,0.4,1,0.5
		c0.4,0.1,0.9,0.1,1.3-0.1c-0.2-1.2-0.1-2.6,0.1-4.2c-2.3-3-2.9-6.1-1.7-8.8c1.3-2.8,4.3-4.6,7.8-4.8c0.7,0,1.5,0.1,2.3,0.3
		c1.3,0.3,3.2,0.2,4.4-1c0.1-0.1,0.2-0.3,0.1-0.5c-1.2-2.2-1.5-4.7-0.9-7.1c0.7-2.7,2.3-4.9,4.7-6.3c2.3-1.3,4.9-1.7,7.5-1.1
		c0.1,0,0.3,0.1,0.4,0.1c5,1.4,8.2,6.6,7.1,11.7c-0.5,2.3-1.8,4.4-3.7,5.9c-0.1,0.1,0,0.3,0,0.4c0,0,0,0,0,0c0,0,0,0,0,0
		c0.6,1.3,1.8,2.5,2.9,3c1.4,0.6,2.4,1.8,2.8,3.2c0.2,0.8,0.4,2.1-0.2,3.4c0,0,0,0.1,0,0.1c-1,1.7-0.9,3.3,0.2,5c0,0,0,0,0,0
		c0,0,0,0,0,0.1c1.5,2.9,1.9,5.1,1.2,6.8c-0.4,1.2-1.4,2.1-2.8,2.6c-2.3,1.2-3.9,3.1-3.9,4.1c0,0.2,0,0.4,0.3,0.6
		c0.6,0.3,0.7,0.9,0.7,1.1c0,0.5-0.3,0.9-0.8,1.1c-0.4,0.2-0.9,0.3-1.3,0.2l0,0c-0.2-0.1-0.4-0.1-0.6-0.3c0,0-0.1-0.1-0.1-0.1
		c-0.1,0.5-0.3,1-0.6,1.4c-0.5,0.8-1.3,1.4-2.3,1.8C129.9,59.6,128.7,59.6,127.7,59.4z M128.1,54.5c-0.1,0.5-0.1,1.4,0.6,1.6
		c0,0,0,0,0.1,0c0.9,0.2,2.3-0.6,2.7-2.3c0.1-0.6,0.6-1,1.2-1.1c0,0,0.1,0,0.1,0c0-0.7,0.3-1.5,0.6-2.2c-0.9,0.3-2,0.3-3.2,0.1
		C129.1,51.9,128.4,53.2,128.1,54.5z M112.7,41.5c0.2,0.2,0.5,0.3,0.8,0.4c0.1,0,0.2,0,0.3,0c0.5,0,1-0.2,1.5-0.6
		c0.7-0.8,1.5-2.1-0.1-5c-0.4-0.7-0.7-1.4-0.9-2.1c-0.1-0.2-0.1-0.5-0.1-0.7c-0.3,0.3-0.5,0.6-0.8,1
		C114.1,36.7,113.8,39.4,112.7,41.5z M133.9,38.2c-0.1,0.2-0.2,0.4-0.3,0.6c-0.4,0.7-0.9,1.3-1.6,1.8c-2.3,2-2.4,3.5-2,4.5
		c0.1-0.1,0.2-0.2,0.3-0.3c1.9-2,3.1-3.9,3.5-5.5C133.8,38.9,133.9,38.6,133.9,38.2z M137,44.3c0,0.7-0.1,1.4-0.2,2
		c0.1-0.1,0.1-0.1,0.2-0.2c0.6-0.5,0.8-1,0.4-2.3C137.2,44,137.1,44.1,137,44.3z M120.3,39.8c0.1,0.1,0.2,0.2,0.3,0.3
		c0,0.1,0.1,0.1,0.1,0.2c0.3-1.6,0.4-3.6,0.4-6c-0.2-1.8-0.1-3.3,0-4.6c0,0-0.1,0-0.1,0.1c-2.3,1.2-2.1,3.2-1,7.4
		C120.1,37.6,120.3,38.6,120.3,39.8z"/>
	<g>
		<path class="st49" d="M135.7,43.4L135.7,43.4c0.2,0,0.5,0.1,0.5,0.4c0.1,4.7-2.3,6.9-6.7,5.7c-1.3-0.4-2.4-1.2-3-2.5
			c-1.1-2.3,0.1-5.2,1.2-6.7c2.2-3.4,3.8-6.1,1.4-8.6c-1.2-1.2-1.9-3.2-2.2-5.7l4.8-0.1c-0.5,1.9-0.2,3.7,1,5.4
			c1.4,2.4,1.6,4.7,0.2,6.9c-0.4,0.6-0.9,1.2-1.4,1.7c-2.1,1.8-3.1,3.8-2.1,5.9c1.5,3,5.6,1.7,6-2.1
			C135.3,43.6,135.5,43.4,135.7,43.4z"/>
		<path class="st49" d="M110.8,37.5L110.8,37.5c-0.2-0.1-0.5,0-0.6,0.2c-1.6,4.3-0.1,7.1,4.3,7.4c1.3,0.1,2.6-0.4,3.5-1.3
			c1.7-1.8,1.5-4.8,1-6.6c-0.9-3.8-1.6-6.8,1.5-8.3c1.4-0.7,2.7-2.3,3.9-4.5l-2.5-0.9c-0.9-0.3-1.9,0.1-2.3,1.1
			c-0.4,1.1-1.2,2.1-2.3,2.9c-2.1,1.8-3,3.9-2.4,6.4c0.2,0.7,0.4,1.3,0.8,1.9c1.3,2.3,1.5,4.4,0,6c-2.3,2.3-5.7-0.3-4.8-3.8
			C111,37.7,110.9,37.5,110.8,37.5z"/>
	</g>
	<g>
		<path class="st50" d="M120.4,22.9 M138.1,27.8 M140.5,31.4c-0.3-1.2-1.2-2.1-2.3-2.6c-1.3-0.6-2.6-1.9-3.3-3.4
			c-0.3-0.5-0.3-1.1,0.2-1.5c1.7-1.3,2.9-3.2,3.4-5.4c1-4.7-1.9-9.4-6.5-10.8c-5.1-1.4-10.3,1.6-11.5,6.7c-0.6,2.3-0.2,4.6,0.8,6.5
			c0.3,0.5,0.2,1.1-0.2,1.5c-1.5,1.5-3.7,1.6-5.2,1.3c-0.7-0.2-1.4-0.3-2.1-0.2c-6.1,0.2-10.6,6-5.3,12.5c-0.3,1.9-0.3,3.5-0.1,4.9
			c0.2,1,0.6,1.9,1.1,2.7c0.5,0.8,1.2,1.5,2.1,2.1c0.3,0.2,0.7,0.4,1.1,0.5c3.4,0.8,5.9-0.9,7.5-5.3c0.3-0.9-0.9-1.1-1.2-0.3
			c-0.9,3.6-2.6,4.9-5.4,3.8c-0.6-0.2-1.3-0.9-1.6-1.4c-0.2-0.3-0.4-0.7-0.5-1c-0.6-1.5-0.6-3.2-0.3-5.1c0.1-0.6,0.3-1.1,0.7-1.7
			c0.3-0.4,0.5-0.8,0.8-1.2c2.8-4.2,7.2-6.7,11.7-7.7c4.4-0.4,10.1,2.6,13.1,7.2c-0.6,3-1.2,5.8-0.4,7c1.4,2.6,2.3,4.5,0.7,5.9
			c-3.3,2.9-5.4,6.2-2.9,8.7c0.7,0.5,2-0.3,1.1-0.7c-2.1-1.2,0.4-4.5,3.6-6.2c3.5-1.4,3-4.6,1.2-8.3c-1.3-2-1.3-3.9-0.2-5.9
			C140.7,33.3,140.7,32.3,140.5,31.4z M110.5,31.1c-0.3-0.5-0.5-1.1-0.4-1.7c0.2-1.3,1.6-2.2,3-1.8c0.2,0.1,0.5,0.1,0.7,0.1
			C112.5,28.7,111.4,29.9,110.5,31.1z"/>
		<path class="st51" d="M118.8,40.7c-0.9,3.6-2.6,4.9-5.4,3.8c-0.5-0.2-1.1-0.7-1.5-1.1c-0.4,0.1-0.8,0.3-1.2,0.8l0,0
			c-2.8-3.3-1.7-7.9-1.7-7.9c2.7-9.5,10.8-10.2,11-10.4c1.2-0.3,1.9-0.9,2-1.6c0.1-0.3-0.2-0.5-0.5-0.4
			c-11.5,3.1-13.3,12.2-13.3,12.2c-0.8,4,0,6.9,2.2,9l0,0c0.3,0.3,0.6,0.5,0.9,0.7c0.3,0.2,0.7,0.4,1.1,0.5c3.4,0.8,5.9-0.9,7.5-5.3
			C120.2,40.2,119,39.9,118.8,40.7z"/>
		<path class="st51" d="M133.3,25l0.3,0.5c0.2,2,0.7,3.6,2.2,4.9c3.1,2.7,4.3,7.4,2.9,11.3c-0.3,0.8,0.2,1.5,0.5,2.3
			c0.4,1.3,0.2,2.4-0.8,3.3c-0.2,0.1-0.3,0.3-0.3,0.6l0.1,1.3c-2.1,1.3-3.4,3-3.1,4.7l0.8,0.8c0.1,0.6-0.5,1-1.3,0.6
			c-0.5-0.3-0.8-1.2-1.1-2.1c-0.1-2.1,1.3-4.2,3.7-6.3c1.5-0.9,1.5-2.6,0.3-4.8c-1.4-2.5-1-4.8-0.3-8.3c-1.8-2.5-3.8-4.4-6-5.5
			l1.6-3.2C132.9,24.9,133.2,24.9,133.3,25z"/>
		<path class="st52" d="M135.7,23.4c-0.6,0.4-1.1,0.9-0.9,1.7c0.6,1.5,1.5,2.3,3.1,3.6c2.9,0.9,3.5,3.7,2.4,5.9
			c-0.4-2.8-1.3-4.3-2.7-4.9c-0.4-0.2-0.8-0.4-1.2-0.7c-0.8-0.7-1.4-1.6-2-2.7c-0.3-0.5-0.4-1.1-0.3-1.7c0-0.4,0.3-0.7,0.6-0.8
			C134.9,23.5,135.2,23.2,135.7,23.4z"/>
		<path class="st52" d="M139.8,38.5c0,0,4.6,7.6,0.4,9.5C140.9,44.8,140.6,41.6,139.8,38.5z"/>
	</g>
	<g>
		<g>
			<path class="st53" d="M108.3,36C108.3,36,108.3,36,108.3,36c0-0.1,0-0.2,0-0.2c0.4-1.7,1.1-3.3,2.1-4.7c-1,1.4-1.7,3-2.1,4.7
				C108.3,35.9,108.3,35.9,108.3,36C108.3,36,108.3,36,108.3,36"/>
			<path class="st53" d="M113.9,27.7c1.7-1.5,4-2.6,6.6-3.2c0.4-0.1,0.7-0.2,1.1-0.4c0.7-0.4,1.3-0.8,1.5-1.5"/>
		</g>
		<path class="st53" d="M120.4,22.9 M138.1,27.8 M140.5,31.4c-0.3-1.2-1.2-2.1-2.3-2.6c-1.3-0.6-2.6-1.9-3.3-3.4
			c-0.3-0.5-0.3-1.1,0.2-1.5c1.7-1.3,2.9-3.2,3.4-5.4c1-4.7-1.9-9.4-6.5-10.8c-5.1-1.4-10.3,1.6-11.5,6.7c-0.6,2.3-0.2,4.6,0.8,6.5
			c0.3,0.5,0.2,1.1-0.2,1.5c-1.5,1.5-3.7,1.6-5.2,1.3c-0.7-0.2-1.4-0.3-2.1-0.2c-6.1,0.2-10.6,6-5.3,12.5c-0.3,1.9-0.3,3.5-0.1,4.9
			c0.2,1,0.6,1.9,1.1,2.7c0.5,0.8,1.2,1.5,2.1,2.1c0.3,0.2,0.7,0.4,1.1,0.5c3.4,0.8,5.9-0.9,7.5-5.3c0.3-0.9-0.9-1.1-1.2-0.3
			c-0.9,3.6-2.6,4.9-5.4,3.8c-0.6-0.2-1.3-0.9-1.6-1.4c-0.2-0.3-0.4-0.7-0.5-1c-0.6-1.5-0.6-3.2-0.3-5.1c0.1-0.6,0.3-1.1,0.7-1.7
			c0.3-0.4,0.5-0.8,0.8-1.2c2.8-4.2,7.2-6.7,11.7-7.7c4.4-0.4,10.1,2.6,13.1,7.2c-0.6,3-1.2,5.8-0.4,7c1.4,2.6,2.3,4.5,0.7,5.9
			c-3.3,2.9-5.4,6.2-2.9,8.7c0.7,0.5,2-0.3,1.1-0.7c-2.1-1.2,0.4-4.5,3.6-6.2c3.5-1.4,3-4.6,1.2-8.3c-1.3-2-1.3-3.9-0.2-5.9
			C140.7,33.3,140.7,32.3,140.5,31.4z M110.5,31.1c-0.3-0.5-0.5-1.1-0.4-1.7c0.2-1.3,1.6-2.2,3-1.8c0.2,0.1,0.5,0.1,0.7,0.1
			C112.5,28.7,111.4,29.9,110.5,31.1z"/>
	</g>
	<g>
		<path class="st50" d="M132.9,24.9c0.3,3.2,1.1,4.7,3.1,6.6c2.7,3.1,3.5,6.3,1.9,9.8c-0.8,1.6-1.9,3-3.4,4.1
			c-3.7,2.8-6.4,5.7-7.2,8.8c-0.7,3.8,4.2,3.4,5-0.3c0-0.2,0.2-0.4,0.5-0.4l0,0c0.3,0,0.5,0.1,0.6,0.4c0.2,1.1,0,2.1-0.6,2.9
			c-0.5,0.7-1.2,1.2-1.9,1.5c-2.7,1-5.6-0.1-5.9-3.9c0-2.6,1.5-5.4,5.5-8.6c0.2-0.1,0.3-0.3,0.5-0.4c4.4-4.7,5.1-8.6,1.8-11.7
			c-0.8-0.7-1.4-1.5-2-2.4c-0.8-1.3-1.6-3-2.3-4.8"/>
		<path class="st52" d="M137.7,41.3c1.6-3.4,0.9-6.7-1.9-9.8c-2-1.9-2.8-3.4-3.1-6.6l-0.1,0c-0.4,0.1-0.7,0.6-0.5,1
			c0.8,2.7,1.9,5,3.4,6.5c2.2,2.1,2.8,4.9,1.4,8.7c-0.6,1.6-1.6,3-3,4c-2.6,2-4.6,4.1-5.7,6.4c1.3-2.1,3.4-4.2,6-6.1
			C135.8,44.3,137,42.9,137.7,41.3z"/>
		<path class="st51" d="M126.5,51.6c1.1-2,3.1-4.2,5.7-6.3c0.9-0.7,1.6-1.5,2.3-2.4c2.4-3.6,1.9-6.9-0.5-10.2
			c-0.4-0.5-0.8-0.9-1.2-1.3c-1.1-1-2.1-2.5-2.4-4.5c0-0.4,0.3-2.1-1-2.4l-0.6,0.2c-0.5,0.2-0.8,0.9-0.5,1.4c0.7,1.8,1.7,4,2.4,5.2
			c0.5,0.9,1.2,1.7,2,2.4c3.4,3.1,2.6,7.1-1.8,11.7c-0.1,0.2-0.3,0.3-0.5,0.4c-4,3.2-5.5,6-5.5,8.6c0.2,1.8,0.8,2.9,1.8,3.6
			C125.5,56,125.4,53.6,126.5,51.6z"/>
		<path class="st53" d="M132.9,24.9c0.3,3.2,1.1,4.7,3.1,6.6c2.7,3.1,3.5,6.3,1.9,9.8c-0.8,1.6-1.9,3-3.4,4.1
			c-3.7,2.8-6.4,5.7-7.2,8.8c-0.7,3.8,4.2,3.4,5-0.3c0-0.2,0.2-0.4,0.5-0.4l0,0c0.3,0,0.5,0.1,0.6,0.4c0.2,1.1,0,2.1-0.6,2.9
			c-0.5,0.7-1.2,1.2-1.9,1.5c-2.7,1-5.6-0.1-5.9-3.9c0-2.6,1.5-5.4,5.5-8.6c0.2-0.1,0.3-0.3,0.5-0.4c4.4-4.7,5.1-8.6,1.8-11.7
			c-0.8-0.7-1.4-1.5-2-2.4c-0.8-1.3-1.6-3-2.3-4.8"/>
	</g>
	<g>
		<path class="st50" d="M125.5,23.5c-3,2.6-4.1,5.2-3.6,10.7c0.1,5.7-0.7,10.1-3.3,11.9c-0.7,0.5-1.3,0.8-1.8,1
			c-0.9,0.4-1.9-0.2-2.1-1.2c-0.1-0.7,0-1.2,0.8-1.5c0.3,0,0.6-0.1,0.7-0.3c0.4-0.5,0-1.2-0.6-1.2c-0.9-0.1-1.6,0.2-2.2,0.8
			c-0.7,0.7-1,1.8-0.9,2.8c0.3,1.6,1.1,2.4,2,2.8c1.8,0.6,3.3,0,5.1-1.1c0.1,0,0.1-0.1,0.1-0.1c3.2-2.4,5.5-6.5,5.9-12.2
			c0-0.8,0.2-1.7,0.7-2.4c1.7-2.5,2.8-6.1,2.9-8.9"/>
		<path class="st51" d="M117.5,47.4c3.3-0.6,5.2-4.3,5.7-11.1c0.1-0.9,0-1.7-0.1-2.6c-0.5-2.6,0.3-5.7,2.9-9.6
			c0.1-0.2,0-0.5-0.2-0.6l0,0c-0.1,0-0.3,0-0.4,0.1c-2.9,2.5-3.9,5.1-3.4,10.5c0,0,0,0,0,0c0.1,5.7-0.7,10.1-3.3,11.9
			c-0.7,0.5-1.3,0.8-1.8,1c-0.2,0.1-0.3,0.1-0.5,0.1C116.8,47.4,117.2,47.5,117.5,47.4z"/>
		<path class="st52" d="M126.4,33.3c1.7-2.5,2.7-5.9,2.9-8.6c0-0.1-0.1-0.2-0.2-0.2l0,0c-0.4-0.1-0.7,0.2-0.7,0.5
			c-0.1,2.5-0.9,4.8-2.2,6.8c-0.5,0.8-0.9,1.7-1.1,2.7l-0.1,0.7c0,0.2-0.1,0.5-0.1,0.7c-0.3,5.1-2,9.1-5.4,11.8c0,0-0.1,0-0.1,0.1
			c-0.2,0.2,0,0.5,0.3,0.4l0,0c0.1,0,0.1-0.1,0.2-0.1c3.3-2.4,5.6-6.6,5.9-12.5C125.7,34.7,125.9,34,126.4,33.3z"/>
		<path class="st53" d="M125.5,23.5c-3,2.6-4.1,5.2-3.6,10.7c0.1,5.7-0.7,10.1-3.3,11.9c-0.7,0.5-1.3,0.8-1.8,1
			c-0.9,0.4-1.9-0.2-2.1-1.2c-0.1-0.7,0-1.2,0.8-1.5c0.3,0,0.6-0.1,0.7-0.3c0.4-0.5,0-1.2-0.6-1.2c-0.9-0.1-1.6,0.2-2.2,0.8
			c-0.7,0.7-1,1.8-0.9,2.8c0.3,1.6,1.1,2.4,2,2.8c1.8,0.6,3.3,0,5.1-1.1c0.1,0,0.1-0.1,0.1-0.1c3.2-2.4,5.5-6.5,5.9-12.2
			c0-0.8,0.2-1.7,0.7-2.4c1.7-2.5,2.8-6.1,2.9-8.9"/>
	</g>
	<g>
		<path class="st54" d="M131.3,18.9c-0.7-0.2-1.1-0.9-0.9-1.6s0.9-1.1,1.5-0.9c0.7,0.2,1.1,0.9,0.9,1.6
			C132.7,18.6,132,19,131.3,18.9z"/>
		<path class="st55" d="M131.8,17.9c-0.1,0.2-0.3,0.4-0.5,0.3c-0.2-0.1-0.4-0.3-0.3-0.5c0.1-0.2,0.3-0.4,0.5-0.3
			C131.7,17.4,131.9,17.7,131.8,17.9z"/>
		<path class="st54" d="M125,17.4c-0.7-0.2-1.1-0.9-0.9-1.6c0.2-0.7,0.9-1.1,1.5-0.9c0.7,0.2,1.1,0.9,0.9,1.6
			C126.4,17.1,125.7,17.5,125,17.4z"/>
		<path class="st55" d="M125.5,16.3c-0.1,0.2-0.3,0.4-0.5,0.3s-0.4-0.3-0.3-0.5c0.1-0.2,0.3-0.4,0.5-0.3
			C125.5,15.9,125.6,16.2,125.5,16.3z"/>
	</g>
	<g>
		<path class="st49" d="M109.3,43.6c-1.3,0.6-2.9,0.7-4.7,0.1c-2.6-1.1-3-4.3-2.1-6.9c0.3-1.2,1.6-0.7,1.1,0.3c0,0,0,0.1,0,0.1
			c-0.9,2.7,2.1,5.1,4.6,3.7c0,0,0.1,0,0.1-0.1C108.4,42,108.8,42.9,109.3,43.6z"/>
		<path class="st49" d="M111.2,42.1c-0.6-1.5-0.6-3.2-0.3-5.1c0.1-0.6,0.3-1.1,0.7-1.7c0.3-0.4,0.5-0.8,0.8-1.2
			C113.4,36.8,112.9,40,111.2,42.1z"/>
	</g>
	<g>
		<g>
			<path class="st52" d="M133,23.9c0.4,0.1,0.8-0.1,0.9-0.6c0.1-0.3-0.2-0.7-0.6-0.8c-0.3-0.1-0.7,0.2-0.8,0.5
				C132.3,23.5,132.6,23.8,133,23.9z"/>
			<path class="st52" d="M132.4,21.4c-0.1,0.2,0.1,0.4,0.3,0.5c0.2,0.1,0.4,0,0.4-0.4c0.1-0.3,0-0.5-0.3-0.5
				C132.6,21,132.5,21.2,132.4,21.4z"/>
			<path class="st52" d="M133.9,22c0.2,0.1,0.2-0.1,0.3-0.2c0-0.1,0.1-0.3-0.1-0.4c-0.2-0.1-0.3,0.2-0.3,0.3
				C133.7,22,133.8,22,133.9,22z"/>
		</g>
		<path class="st52" d="M131.8,27.7c-0.1,0.3,0,0.5,0.3,0.5c0.3,0.1,0.5-0.1,0.6-0.3c0.1-0.3-0.1-0.5-0.4-0.6
			C132,27.2,131.8,27.4,131.8,27.7z"/>
		<path class="st52" d="M121.7,25.6c-0.1,0.3,0,0.5,0.3,0.5c0.3,0.1,0.6-0.1,0.5-0.3c0.1-0.3-0.1-0.5-0.4-0.6
			C122,25.1,121.8,25.3,121.7,25.6z"/>
		<g>
			<path class="st52" d="M126.9,28.8c0.2-0.2,0.3-0.6,0.1-0.8c-0.2-0.3-0.5-0.2-0.8-0.1c-0.3,0.2-0.2,0.5-0.1,0.8
				C126.3,29,126.6,29.1,126.9,28.8z"/>
			<path class="st52" d="M126.6,26.7c-0.2,0.2-0.2,0.3,0,0.5c0.2,0.2,0.3,0.2,0.6,0c0.2-0.2,0.2-0.3,0-0.5
				C126.9,26.5,126.7,26.6,126.6,26.7z"/>
		</g>
		<g>
			<path class="st52" d="M126.5,12.8c0.2-0.2,0.3-0.5,0.3-0.8c0-0.4-0.1-0.7-0.3-1.1c0,0,0,0,0-0.1c-0.1-0.1-0.1-0.1-0.2-0.2
				c-0.2-0.2-0.5-0.2-0.7,0c-0.4,0.5-0.5,1.1-0.2,1.6c0.1,0.2,0.2,0.3,0.3,0.4C126.1,13,126.2,13,126.5,12.8z"/>
			<path class="st52" d="M127,10.7c0.2,0.1,0.4-0.1,0.5-0.3c0-0.1-0.1-0.4-0.4-0.5s-0.4,0.1-0.5,0.3C126.6,10.5,126.7,10.7,127,10.7
				z"/>
		</g>
	</g>
	<g>
		<path class="st52" d="M133.9,8.9c3.3,2,5.6,6.1,3.8,11.1c-0.7,1.7-1.8,3-3.1,4C137.7,18.4,137.8,13.1,133.9,8.9z"/>
		<path class="st51" d="M108.5,31.2c0.4-0.5,0.8-1.1,1.2-1.5c0,0.6,0.1,1.1,0.4,1.4c-1.2,1.8-1.5,2.4-2,4.3c-0.4-0.6-0.7-1-1-1.6
			c-3.2-5.3,1.9-11,7.8-10c2.5,0.5,3.5,0.4,5.2-0.5c1.5-0.9,1.8-1.7,1-3.1c0,0,0,0,0,0c-0.6-1.4-0.9-2.9-0.8-4.5
			c0.7-6.1,6-8.9,10.7-8c-8,1.5-8.7,5.4-9.1,10c-0.1,0.8-0.1,1.7,0.1,2.5c0.2,0.9,0,2.8-1.3,3.7c-2.3,0.5-4.5,1.3-6.3,2.6
			c-1.3-1.3-3.7-1.3-5.1,0c-1,0.8-1.3,2.5-1.2,4.4C108.3,31.3,108.5,31.4,108.5,31.2z"/>
	</g>
</g>
</svg>
